<?xml version="1.0" standalone="no"?>
<!DOCTYPE svg PUBLIC "-//W3C//DTD SVG 20010904//EN"
 "http://www.w3.org/TR/2001/REC-SVG-20010904/DTD/svg10.dtd">
<svg version="1.0" xmlns="http://www.w3.org/2000/svg"
 width="1280.000000pt" height="720.000000pt" viewBox="0 0 1280.000000 720.000000"
 preserveAspectRatio="xMidYMid meet">
<metadata>
Created by potrace 1.15, written by Peter Selinger 2001-2017
</metadata>
<g transform="translate(0.000000,720.000000) scale(0.100000,-0.100000)"
fill="#000000" stroke="none">
<path d="M0 5810 l0 -1389 33 -5 c29 -5 72 -8 277 -21 110 -7 168 -15 193 -24
72 -28 265 -43 290 -23 11 9 35 15 115 29 17 3 32 9 32 14 0 5 8 9 17 9 11 0
13 3 8 9 -6 6 -34 11 -64 13 -53 3 -77 20 -47 31 26 10 169 8 214 -3 43 -10
77 -2 95 24 5 8 9 8 15 0 10 -16 100 -24 105 -10 7 17 77 8 77 -9 0 -8 8 -11
20 -8 26 7 41 26 31 41 -8 13 -190 56 -199 48 -2 -3 -11 1 -19 9 -8 8 -23 21
-35 29 -25 18 -14 39 18 33 20 -3 24 0 24 18 0 13 -7 25 -18 27 -13 4 -17 13
-16 34 1 16 3 34 3 40 1 18 55 36 84 28 22 -5 27 -3 27 13 0 11 8 19 19 20 10
1 45 6 77 12 44 8 60 8 65 -1 5 -8 11 -9 21 -1 16 13 138 26 138 14 0 -13 64
-11 72 2 6 9 8 9 8 0 0 -7 5 -13 11 -13 11 0 8 31 -8 97 -5 22 -4 22 63 16 38
-4 116 -7 174 -7 100 -1 107 1 153 29 36 23 47 36 47 55 0 14 9 33 20 43 31
26 25 45 -17 54 -21 4 -45 6 -54 5 -9 -2 -22 4 -29 13 -7 8 -18 15 -25 15 -8
0 -16 6 -19 13 -3 6 -4 3 -3 -7 3 -27 -15 -30 -41 -6 -11 11 -26 20 -31 20 -6
0 -16 9 -23 20 -12 19 -63 38 -193 72 -22 6 -58 16 -80 24 -53 17 -98 28 -108
26 -4 -1 -20 4 -35 12 -15 7 -47 17 -72 21 -25 5 -39 10 -32 12 22 8 2 23 -31
23 -18 0 -27 4 -21 8 6 4 14 19 17 33 6 25 10 26 77 27 39 1 79 6 90 12 10 5
30 10 44 10 13 0 32 8 42 17 11 11 19 14 21 7 2 -7 16 -9 36 -4 27 5 32 11 30
32 -1 21 5 28 36 40 26 11 44 12 55 6 10 -5 25 -6 34 -2 34 14 189 8 226 -10
24 -11 41 -13 58 -7 20 8 21 10 6 16 -10 4 -18 13 -18 20 0 16 55 39 75 31 8
-3 15 -1 15 4 0 6 16 10 35 10 19 0 35 5 35 10 0 6 -9 10 -19 10 -17 0 -38 40
-33 63 1 4 -4 7 -10 7 -7 0 -20 5 -28 10 -13 9 -13 11 0 20 13 8 13 10 -1 10
-17 0 -49 30 -49 46 0 5 5 2 10 -6 16 -24 11 4 -6 38 -15 31 -18 32 -75 32
-64 0 -74 9 -34 30 34 18 31 26 -12 36 -28 6 -32 9 -17 11 16 3 20 9 17 24 -3
10 0 19 6 19 6 0 11 -8 11 -18 0 -14 8 -18 40 -17 l40 0 0 63 c0 52 3 62 18
62 16 1 16 1 0 14 -27 20 -22 26 20 26 28 0 44 6 60 25 l22 25 -23 2 c-12 0
-29 0 -37 0 -33 -3 -58 8 -56 25 2 13 12 18 37 18 24 0 41 8 60 28 15 17 34
27 45 25 14 -2 18 2 16 19 -3 24 1 28 46 38 28 6 32 4 32 -14 0 -14 6 -21 20
-21 26 0 25 14 -1 32 -18 12 -20 17 -11 35 9 16 24 22 64 26 29 2 94 10 145
16 65 9 98 9 112 2 34 -19 71 -14 71 9 0 11 7 20 15 20 18 0 20 -17 3 -23 -7
-2 1 -8 17 -12 17 -4 36 -13 44 -19 10 -8 16 -6 26 8 13 17 14 17 34 -3 13
-13 34 -21 55 -21 19 0 41 -3 50 -6 11 -4 16 0 16 13 0 16 7 18 55 16 51 -2
55 0 61 22 6 24 24 35 24 16 0 -6 12 -6 32 0 46 13 48 12 48 -18 1 -27 1 -27
15 -9 19 25 19 36 0 36 -8 0 -15 9 -15 20 0 22 19 27 37 9 8 -8 17 -8 31 0 28
15 82 14 83 -1 1 -7 5 -2 9 12 6 19 8 20 9 6 1 -10 6 -16 14 -13 14 5 39 -17
30 -27 -4 -3 -1 -6 6 -6 7 0 10 7 6 19 -3 10 -1 29 4 42 8 19 10 20 10 5 1
-12 6 -16 17 -12 9 3 18 6 20 6 2 0 4 6 4 13 0 18 24 67 33 67 4 0 7 -9 7 -20
0 -21 4 -23 60 -24 22 -1 34 -6 33 -13 -2 -8 9 -13 30 -13 23 0 28 3 17 10 -8
5 -11 12 -7 17 4 4 17 2 27 -5 32 -20 77 -15 83 8 3 11 12 20 21 20 10 0 16 9
16 22 l0 22 20 -22 c11 -12 20 -26 20 -32 0 -18 39 -11 50 10 14 25 30 26 30
1 0 -17 8 -19 83 -18 45 0 63 2 40 4 -38 4 -43 7 -43 29 0 13 -4 24 -10 24 -5
0 -10 -7 -10 -17 0 -9 -3 -14 -6 -10 -3 3 -3 15 1 26 4 15 13 19 28 17 12 -3
24 -5 27 -5 3 -1 -2 -5 -10 -11 -12 -7 -12 -10 4 -16 10 -4 26 -3 35 3 19 12
57 -18 46 -36 -4 -7 11 -12 44 -12 28 -1 57 -2 64 -3 6 -1 13 9 15 21 3 23 3
23 25 3 24 -23 37 -25 37 -6 0 7 7 19 15 26 15 13 20 5 16 -26 -1 -6 12 -17
29 -24 16 -7 30 -17 30 -22 0 -6 7 -8 15 -4 9 3 15 0 15 -10 0 -12 7 -15 24
-12 14 3 31 1 38 -3 10 -7 10 -9 1 -9 -7 0 -13 -5 -13 -11 0 -6 8 -8 19 -4 25
8 36 -21 13 -34 -9 -5 -14 -13 -10 -16 4 -4 18 1 31 12 20 14 24 24 20 48 -3
17 -12 35 -19 41 -16 13 -19 34 -4 34 6 0 10 -4 10 -10 0 -15 30 -12 36 4 7
17 37 9 31 -8 -2 -6 0 -19 5 -28 11 -23 48 -24 48 -2 0 11 5 14 16 10 9 -3 18
-6 20 -6 2 0 4 -9 4 -19 0 -22 16 -36 24 -22 4 5 0 12 -6 15 -10 3 -8 9 4 19
10 8 15 17 11 20 -3 4 0 7 8 7 8 0 4 8 -11 20 -20 15 -23 21 -12 32 10 10 14
10 21 -1 11 -17 41 -7 41 14 0 8 5 15 10 15 12 0 13 -37 1 -44 -14 -9 -1 -45
21 -57 11 -6 31 -8 44 -5 20 5 23 11 18 31 -5 19 -2 25 10 25 9 0 16 5 16 11
0 5 4 8 8 5 5 -3 7 -19 4 -36 -4 -25 -1 -30 16 -30 11 0 23 -7 26 -16 5 -13 9
-14 21 -4 17 14 165 20 165 7 0 -5 5 -5 11 -2 6 5 4 12 -8 21 -17 13 -17 13 2
14 15 0 16 3 7 12 -21 21 -13 28 28 28 30 0 42 -5 51 -21 7 -14 14 -18 18 -11
5 8 12 5 23 -7 11 -13 24 -18 40 -14 l23 6 -23 -22 c-12 -12 -28 -21 -35 -20
-30 4 -37 -2 -34 -31 2 -16 16 -41 30 -54 l27 -25 0 29 c0 15 -6 30 -12 33 -7
2 -9 8 -5 13 4 5 12 2 17 -6 7 -12 14 -9 39 14 26 25 34 28 55 18 17 -8 27 -7
36 1 9 9 15 8 24 -6 10 -16 15 -13 54 30 24 27 41 43 38 36 -4 -6 3 -15 15
-18 12 -4 18 -12 15 -20 -3 -8 3 -17 14 -20 24 -8 58 9 41 19 -6 4 -11 15 -10
24 0 10 3 12 6 5 3 -8 14 -11 29 -7 19 5 24 2 24 -14 0 -11 7 -32 14 -48 8
-15 13 -31 11 -35 -9 -13 28 -19 43 -7 13 11 15 10 9 -4 -3 -10 -2 -20 3 -23
16 -10 12 -55 -5 -55 -8 0 -15 9 -15 20 0 11 -5 20 -12 20 -6 0 -8 -3 -5 -6 3
-4 2 -16 -4 -26 -8 -16 -7 -24 4 -36 14 -14 19 -13 49 1 28 14 35 14 48 2 18
-17 40 -3 40 24 0 13 2 14 9 2 5 -8 7 -20 4 -28 -3 -9 3 -13 21 -13 l25 0 -19
45 c-19 45 -19 45 1 45 12 0 23 -10 29 -26 10 -25 13 -26 65 -22 46 4 56 2 60
-13 4 -10 12 -18 18 -16 7 1 11 -7 9 -20 -2 -16 2 -23 12 -23 9 0 16 5 16 10
0 6 17 10 38 11 20 0 32 3 25 5 -18 8 40 64 66 64 11 0 21 -6 21 -13 0 -16
-36 -47 -54 -47 -8 0 -17 -7 -20 -16 -3 -9 -11 -12 -18 -8 -7 5 -9 2 -5 -9 4
-12 -2 -18 -26 -23 -32 -7 -32 -7 21 -21 39 -10 58 -11 67 -3 9 8 15 8 20 0 3
-5 15 -10 25 -10 17 0 19 7 17 68 -2 76 -11 71 95 53 65 -11 78 -17 78 -37 0
-8 3 -13 8 -13 18 3 32 -2 32 -12 0 -6 -16 -9 -37 -7 -28 2 -41 9 -48 26 -14
31 -40 37 -81 17 -34 -16 -40 -25 -26 -39 7 -8 8 -13 11 -41 1 -11 14 -15 51
-15 27 0 49 3 49 8 -4 27 2 44 14 35 6 -5 28 -9 47 -8 19 0 38 -4 42 -10 5 -6
8 -6 8 3 0 6 7 12 15 12 18 0 20 -26 3 -33 -7 -3 -4 -6 8 -6 11 -1 25 4 30 9
7 7 11 6 11 -4 0 -8 -5 -12 -10 -9 -6 3 -7 1 -3 -5 13 -22 34 -14 29 11 -3 16
-2 18 5 9 5 -8 12 -13 16 -13 3 1 16 1 28 1 21 0 21 0 2 -16 -17 -14 -14 -15
51 -10 40 4 76 2 85 -4 19 -12 87 -12 -1363 -12 l-1207 1 2 -1022 c2 -916 8
-1326 17 -1157 2 36 5 48 9 33 7 -20 9 -19 37 19 20 27 31 35 33 24 2 -8 9
-13 18 -9 9 3 11 10 6 17 -5 6 -5 22 -1 36 7 24 7 24 8 3 1 -29 21 -30 21 -2
0 11 5 17 10 14 6 -3 10 3 10 14 0 11 4 23 10 26 7 4 10 -90 10 -273 l0 -280
178 -123 c248 -171 232 -155 145 -151 -44 3 -87 11 -109 22 -26 14 -42 16 -60
10 -28 -11 -54 -3 -54 16 0 19 -40 44 -72 44 -16 0 -28 5 -28 10 0 6 9 10 20
10 31 0 24 13 -24 42 -32 19 -57 26 -90 26 -34 -1 -52 4 -69 20 -13 12 -28 22
-34 22 -5 0 -17 8 -26 18 -9 10 -52 29 -94 42 -43 14 -81 28 -84 33 -9 13 -44
3 -42 -11 5 -21 -35 -32 -101 -28 -35 2 -70 7 -77 12 -7 4 -30 7 -50 5 -22 -1
-43 4 -52 14 -9 8 -23 15 -31 15 -44 0 -109 27 -127 52 -15 20 -31 28 -67 33
-78 10 -143 25 -176 39 -53 23 -117 34 -146 26 -14 -4 -34 -3 -44 2 -20 11
-59 1 -53 -15 7 -21 80 -38 184 -42 102 -4 173 -23 173 -46 0 -6 -8 -9 -19 -6
-11 3 -29 -2 -41 -10 -19 -13 -23 -13 -38 -1 -49 42 -159 61 -196 33 -10 -8
-24 -11 -30 -8 -11 7 -146 12 -146 6 0 -2 11 -8 25 -13 14 -5 25 -14 25 -20 0
-12 -52 -14 -66 -2 -5 5 -43 14 -84 21 -41 7 -86 15 -100 19 -14 3 -44 4 -67
3 -37 -2 -44 0 -54 23 -9 18 -23 28 -48 32 -20 4 -56 22 -80 40 -30 23 -55 34
-77 34 -34 0 -52 -14 -33 -26 8 -5 8 -9 -1 -14 -8 -5 -3 -10 14 -14 14 -3 26
-11 26 -16 0 -16 -58 -11 -145 11 -44 11 -98 22 -120 23 -51 4 -107 16 -120
26 -12 10 -13 10 -71 10 -27 0 -43 4 -39 10 4 6 -17 8 -57 4 -35 -3 -94 0
-131 6 -45 7 -74 7 -85 1 -15 -9 -14 -10 6 -11 12 0 31 -9 42 -20 12 -12 41
-25 65 -30 25 -6 65 -14 90 -20 25 -5 55 -15 67 -21 13 -7 43 -9 76 -6 51 5
97 -7 122 -33 3 -3 19 -10 35 -15 17 -6 35 -21 40 -33 6 -13 19 -25 30 -28 37
-8 150 -8 169 1 15 6 17 5 11 -5 -6 -10 -4 -12 7 -7 9 3 25 -3 36 -14 12 -10
27 -19 35 -19 18 0 61 -46 53 -58 -3 -5 -31 -13 -61 -17 -92 -11 -67 -29 58
-41 37 -4 70 -11 73 -15 2 -4 12 -5 22 -2 14 5 15 4 4 -8 -9 -10 -17 -11 -30
-2 -18 11 -62 10 -80 -1 -6 -3 -37 -3 -70 0 -46 5 -61 11 -65 25 -6 21 -90 37
-110 21 -7 -6 -30 -9 -52 -7 -57 6 -88 -4 -80 -24 5 -13 4 -14 -7 -3 -11 11
-8 17 15 36 l29 23 -40 -2 c-28 -2 -39 1 -36 10 3 6 -3 19 -13 27 -16 15 -20
15 -38 1 -20 -15 -19 -15 3 -8 22 6 22 5 10 -14 -8 -13 -19 -19 -28 -15 -8 3
-21 8 -27 11 -14 6 -17 -6 -5 -22 4 -6 23 -18 42 -27 l35 -16 -37 5 c-25 4
-38 2 -38 -6 0 -6 -5 -11 -11 -11 -5 0 -8 4 -5 8 2 4 -4 9 -15 9 -11 1 -17 -2
-14 -8 4 -5 -6 -4 -22 2 -15 6 -30 10 -33 10 -10 -1 -46 11 -87 30 -56 25 -83
25 -76 0 4 -15 -3 -19 -38 -25 -29 -5 -45 -3 -50 6 -5 8 -43 14 -111 16 -63 3
-110 10 -123 18 -15 10 -74 15 -206 19 -101 3 -236 9 -299 14 -63 5 -128 9
-145 8 -44 -1 -115 11 -128 21 -7 5 -37 12 -69 14 -50 4 -60 9 -96 45 -60 63
-180 87 -175 36 3 -27 -3 -27 -97 -13 -90 14 -103 22 -55 31 22 4 44 3 49 -2
13 -12 36 -11 36 1 0 6 -8 10 -18 10 -29 0 -21 43 9 50 l24 6 -25 16 c-14 9
-54 24 -90 33 -35 9 -77 26 -92 37 l-28 19 0 -45 c0 -41 3 -47 30 -61 35 -18
30 -40 -6 -31 -22 6 -24 4 -24 -34 0 -27 4 -39 11 -35 5 4 21 4 35 1 35 -9 19
-29 -17 -22 l-29 6 0 -1786 c0 -1672 1 -1786 17 -1780 15 6 14 4 -2 -14 -21
-23 -13 -39 10 -20 9 7 15 8 15 2 0 -6 38 -10 94 -11 78 -1 101 2 127 18 26
16 28 20 13 24 -17 4 -17 5 -1 6 22 1 22 21 0 21 -10 0 0 9 22 20 22 11 44 18
50 16 5 -2 2 -5 -8 -5 -10 -1 -16 -5 -13 -10 4 -5 1 -11 -4 -13 -6 -2 -12 -13
-13 -25 -1 -14 -13 -28 -32 -38 l-30 -15 52 0 c35 0 63 7 88 21 26 16 34 17
29 6 -6 -17 12 -32 21 -17 4 7 12 7 25 0 11 -6 28 -6 42 -1 21 8 20 9 -17 20
-63 18 -74 27 -53 48 10 9 21 13 25 9 5 -5 2 -11 -5 -13 -21 -8 -13 -19 16
-21 22 -1 24 0 12 9 -12 9 -11 10 5 6 16 -3 21 1 23 17 0 11 -4 24 -11 29 -7
5 1 6 20 2 47 -9 48 10 1 22 -36 10 -41 9 -45 -8 -6 -22 -23 -26 -23 -4 0 17
36 39 51 29 6 -3 16 2 23 12 9 12 15 14 20 6 4 -7 2 -12 -5 -12 -10 0 -10 -3
-1 -12 9 -9 17 -9 36 2 14 7 23 17 20 21 -3 5 2 6 10 3 23 -9 19 -22 -6 -26
-17 -2 -24 -11 -26 -32 -3 -23 0 -28 13 -22 9 3 13 2 10 -4 -3 -6 3 -10 14
-10 14 0 21 6 21 19 0 16 -5 19 -25 15 -14 -2 -25 0 -25 6 0 5 6 11 13 11 6 1
19 2 27 3 8 0 14 7 12 15 -2 8 3 18 10 22 18 12 58 11 58 0 0 -5 -10 -7 -22
-5 -21 4 -22 4 -3 -5 12 -6 15 -10 6 -10 -8 -1 -11 -4 -8 -7 4 -4 12 -2 19 4
7 5 29 14 49 20 31 8 38 7 54 -12 14 -17 17 -18 12 -3 -8 21 21 36 33 18 5 -9
9 -8 14 4 3 9 11 13 18 9 6 -4 39 -6 72 -5 34 2 96 3 139 3 42 0 77 4 77 9 0
5 -6 9 -13 9 -7 0 -18 9 -25 20 -7 12 -18 18 -25 14 -7 -4 -9 -4 -5 1 4 4 3
14 -3 21 -14 17 6 21 121 28 47 3 103 12 125 20 51 19 87 20 128 2 19 -8 74
-14 132 -15 215 -3 466 -14 470 -22 5 -7 -27 -37 -75 -71 -14 -10 -18 -15 -9
-12 10 3 20 1 24 -5 9 -16 -20 -41 -49 -41 -14 0 -27 -4 -30 -9 -9 -14 46 -6
89 14 29 13 35 19 22 22 -9 3 -15 9 -12 13 7 11 59 3 91 -12 16 -8 28 -6 48 7
25 17 26 16 26 -1 0 -11 -4 -26 -10 -34 -8 -12 -10 -12 -15 2 -4 10 -14 14
-27 10 -20 -5 -20 -6 -3 -19 18 -13 18 -14 -1 -29 -10 -8 -14 -13 -7 -10 6 4
14 2 18 -4 3 -5 21 -10 38 -11 l32 -1 -35 -8 c-21 -5 -36 -5 -38 1 -2 5 -11 9
-19 9 -11 0 -14 7 -9 25 4 17 2 24 -6 21 -7 -1 -10 -1 -6 1 5 3 8 14 8 26 l0
21 -20 -22 c-11 -12 -20 -26 -20 -32 0 -5 -4 -10 -10 -10 -5 0 -10 7 -10 15 0
8 -4 15 -10 15 -5 0 -10 -7 -10 -15 0 -8 -5 -15 -11 -15 -5 0 -7 4 -4 10 3 6
-1 7 -10 4 -9 -4 -14 -13 -11 -21 11 -28 -11 -50 -43 -45 -19 2 -31 0 -31 -7
0 -10 40 -16 83 -12 9 1 17 -3 17 -9 0 -7 -7 -10 -15 -6 -8 3 -15 1 -15 -4 0
-5 -10 -10 -22 -12 -13 -2 91 -5 230 -6 138 -1 252 2 252 6 0 4 12 9 28 10 20
1 23 -1 12 -8 -10 -6 30 -9 117 -9 86 1 131 5 127 11 -4 6 1 6 13 -1 29 -15
243 -14 243 2 0 9 3 8 9 -1 9 -15 124 -15 154 0 11 6 17 5 17 -2 0 -6 17 -9
40 -8 22 2 40 6 40 11 0 4 5 7 11 7 5 0 7 -4 4 -10 -4 -7 111 -10 336 -9 198
1 336 5 328 10 -9 6 -10 9 -2 9 6 0 14 -4 17 -8 8 -13 556 -15 556 -2 0 5 -6
10 -13 10 -15 0 -51 40 -42 48 3 3 12 -4 21 -17 11 -15 22 -20 35 -16 14 5 17
2 13 -8 -3 -8 0 -18 7 -23 7 -4 15 -2 17 4 2 7 11 12 20 12 15 0 15 -2 2 -10
-10 -7 40 -10 155 -8 109 1 173 5 178 12 5 8 9 7 15 -1 11 -17 463 -17 473 -1
6 9 11 9 21 0 18 -14 338 -17 338 -2 0 5 7 10 15 10 8 0 15 -4 15 -10 0 -6 34
-10 83 -10 l82 0 -25 20 -25 20 28 0 c15 0 27 -4 27 -10 0 -5 7 -10 15 -10 8
0 15 -4 15 -8 0 -4 16 -8 35 -9 19 -1 35 3 35 8 0 5 -10 9 -21 9 -18 0 -19 2
-9 15 10 12 9 15 -6 17 -11 0 -26 1 -35 0 -14 -1 -15 2 -5 23 13 30 26 32 26
6 0 -13 9 -21 29 -26 29 -6 46 -28 35 -46 -8 -14 39 -11 77 5 29 12 37 12 54
0 27 -20 85 -19 85 2 0 11 -6 14 -20 9 -12 -4 -20 -2 -20 5 0 7 -8 9 -20 5
-14 -5 -20 -2 -20 9 0 10 -9 16 -21 16 -15 0 -19 -5 -15 -15 4 -11 -2 -15 -20
-15 -14 0 -22 4 -19 10 3 6 1 10 -6 10 -8 0 -9 3 0 13 6 8 8 16 6 19 -10 10
74 -9 87 -19 19 -15 57 -22 63 -13 3 5 -8 11 -25 15 -17 4 -28 11 -24 16 3 5
-2 12 -10 15 -9 3 -16 14 -16 24 0 11 -4 21 -10 25 -11 7 -2 35 11 35 5 0 9
-7 9 -16 0 -23 20 -55 30 -49 5 3 7 12 4 20 -4 8 -10 12 -16 9 -5 -3 -4 3 4
15 7 12 16 21 21 21 4 0 6 -4 3 -9 -3 -5 1 -14 9 -21 11 -9 15 -9 15 -1 0 7 5
9 11 6 6 -4 9 0 7 11 -3 17 5 19 94 19 53 0 100 4 104 8 4 4 -3 7 -15 7 -12 0
-20 4 -17 9 3 5 -1 12 -10 15 -9 4 -14 9 -11 13 4 3 -1 12 -11 19 -9 7 -14 15
-11 18 3 3 102 9 220 12 154 5 219 11 234 20 26 18 86 18 111 -1 15 -11 53
-14 165 -15 l147 0 34 -73 c19 -39 48 -105 64 -144 l29 -73 2692 0 2693 0 0
1699 c0 1610 -1 1700 -17 1704 -17 4 -17 5 0 6 16 1 17 98 17 1896 l0 1895
-6400 0 -6400 0 0 -1390z m7931 -96 c1 -109 5 -208 9 -219 7 -16 9 -11 9 19 1
60 13 32 20 -46 1 -5 7 -7 14 -5 6 1 11 -4 9 -12 -2 -11 6 -12 40 -7 24 4 52
8 64 10 11 1 26 6 32 10 7 4 13 2 13 -3 3 -26 4 -30 12 -37 4 -4 7 -2 7 6 0
10 3 10 15 0 8 -6 19 -9 25 -5 6 4 17 1 25 -5 11 -10 15 -10 15 -1 0 7 5 9 10
6 6 -3 10 -14 10 -24 0 -30 74 -55 83 -28 3 9 7 9 20 -2 10 -7 17 -9 17 -4 0
6 21 13 46 17 25 3 52 13 61 22 12 12 33 15 89 12 63 -3 74 -6 74 -20 0 -15 9
-18 44 -18 27 0 48 6 56 15 7 9 20 15 29 13 26 -4 93 32 87 48 -3 7 -1 16 4
19 6 4 10 2 10 -3 0 -13 104 -34 136 -27 16 4 24 3 18 -2 -9 -6 -8 -11 1 -20
10 -10 16 -9 25 2 8 10 31 13 76 11 37 -1 66 3 68 9 3 5 3 -2 0 -17 -4 -20 -1
-29 16 -38 31 -17 92 -4 88 18 -2 13 5 17 30 18 19 1 37 6 41 12 4 6 24 12 46
13 22 1 48 9 57 17 9 8 23 12 30 10 7 -3 28 6 47 19 20 13 37 20 39 14 2 -5 9
-8 17 -5 8 3 11 12 8 20 -8 22 21 17 35 -6 7 -12 17 -18 22 -15 5 3 12 1 15
-5 4 -6 15 -8 25 -5 14 4 19 -1 22 -25 3 -16 0 -30 -5 -30 -6 0 -7 -3 -4 -7
14 -13 63 -12 92 1 17 8 44 20 60 27 17 8 33 18 37 24 10 14 29 -6 31 -32 0
-12 6 -19 13 -16 7 3 14 -5 16 -18 3 -21 8 -23 60 -23 34 0 56 -4 55 -10 -1
-6 6 -10 16 -8 14 2 16 -2 11 -23 -5 -21 -2 -27 15 -32 11 -3 21 -9 21 -14 0
-5 10 -8 23 -6 17 2 23 -4 25 -25 2 -16 9 -28 18 -28 20 0 17 -24 -6 -51 l-19
-24 -1 22 c0 29 -16 38 -23 13 -7 -28 22 -48 70 -48 47 1 73 -15 73 -42 0 -10
6 -21 13 -24 10 -5 10 -7 0 -12 -39 -18 14 -41 111 -47 60 -4 72 -9 88 -30 12
-17 25 -23 38 -20 11 3 20 1 20 -5 0 -6 12 -13 28 -15 25 -4 24 -4 -6 -6 l-33
-1 36 -31 c34 -30 37 -31 82 -20 27 5 77 12 113 13 53 2 69 7 87 26 13 14 24
19 28 12 4 -6 30 -8 65 -6 33 3 62 1 65 -4 3 -5 12 -7 20 -4 8 4 12 10 9 15
-3 5 4 9 15 9 11 0 23 -5 27 -12 4 -7 3 -8 -4 -4 -7 4 -12 0 -12 -10 0 -10 3
-15 6 -12 3 4 20 0 37 -7 18 -7 56 -13 85 -13 65 1 75 -7 32 -25 l-32 -14 43
-6 c24 -3 49 -1 56 5 7 5 29 14 48 18 29 6 35 5 31 -5 -3 -8 6 -16 22 -20 16
-4 28 -2 30 4 2 6 13 11 25 11 12 0 31 7 41 15 11 8 31 15 44 15 l25 0 -29
-25 c-16 -14 -46 -28 -66 -31 -22 -4 -38 -12 -38 -20 0 -19 49 -29 71 -15 10
6 30 11 43 11 14 0 31 7 40 15 8 8 27 15 43 15 16 0 35 6 42 13 11 9 10 7 0
-10 -8 -13 -17 -23 -21 -23 -5 0 -8 -6 -8 -14 0 -8 -12 -17 -26 -20 -41 -11
-23 -31 25 -28 42 2 50 -5 29 -26 -18 -18 -1 -27 25 -14 12 6 35 14 51 16 16
3 31 8 34 10 7 7 32 -13 32 -26 0 -5 -4 -7 -9 -3 -5 3 -13 0 -16 -6 -5 -7 -23
-9 -50 -4 -42 6 -43 5 -41 -20 3 -25 2 -25 -42 -20 -56 7 -83 -10 -52 -32 18
-12 24 -13 37 -1 14 11 16 11 8 -1 -6 -11 -2 -13 20 -8 35 6 68 -19 44 -34 -8
-5 -29 -9 -47 -9 -25 0 -35 -5 -39 -20 -3 -12 -14 -20 -29 -21 -13 -1 -30 -2
-36 -3 -19 -2 -22 -44 -5 -61 8 -8 17 -11 21 -8 3 4 6 1 6 -6 0 -7 6 -11 13
-8 50 19 57 18 57 -2 0 -19 -10 -26 -32 -22 -4 0 -5 -6 -2 -14 4 -9 19 -15 36
-15 23 0 29 4 26 18 -5 30 28 32 37 2 3 -11 13 -20 20 -20 9 0 12 -6 8 -16 -5
-13 1 -15 39 -9 47 7 76 -8 38 -20 -16 -5 -18 -10 -10 -26 6 -10 19 -19 30
-19 25 0 19 -35 -10 -58 -19 -16 -20 -21 -9 -45 8 -17 18 -26 28 -23 44 12
111 16 111 7 0 -5 -9 -11 -20 -13 -38 -6 -16 -23 29 -23 51 0 66 -20 21 -28
-58 -12 -31 -27 48 -27 53 0 72 -3 62 -10 -11 -7 -4 -10 25 -10 29 0 36 3 25
10 -8 5 -11 12 -8 16 11 10 40 -4 33 -16 -9 -14 8 -13 52 4 21 8 67 17 101 19
60 5 64 4 59 -14 -4 -16 -1 -19 15 -17 12 2 23 -2 25 -8 3 -9 -39 -23 -124
-39 -18 -4 -36 -11 -40 -17 -4 -7 0 -9 10 -5 10 3 17 2 17 -3 0 -6 -6 -10 -13
-10 -8 0 -22 -9 -32 -20 -10 -11 -24 -20 -31 -20 -14 0 -30 -38 -20 -47 3 -4
6 -1 6 5 0 7 11 12 25 12 40 0 29 -16 -27 -38 -40 -16 -47 -21 -28 -22 14 0
32 -5 40 -10 12 -8 11 -11 -8 -16 -16 -5 -21 -12 -17 -24 3 -10 2 -21 -4 -24
-17 -11 0 -46 23 -46 18 0 17 -2 -8 -15 -15 -8 -39 -15 -52 -15 -13 0 -24 -4
-24 -10 0 -5 9 -10 20 -10 11 0 20 -5 20 -12 0 -12 67 -78 78 -77 29 4 19 -5
-22 -21 -27 -11 -53 -17 -58 -14 -4 3 -11 -3 -15 -13 -4 -10 -13 -23 -21 -29
-13 -9 -12 -12 7 -17 11 -3 21 -9 21 -14 0 -16 -107 -63 -142 -63 -34 0 -78
-23 -78 -41 0 -5 7 -9 16 -9 9 0 14 -6 11 -12 -2 -8 12 -18 37 -25 46 -14 96
-17 96 -5 0 4 44 6 98 5 128 -2 131 -3 102 -14 -14 -6 -33 -8 -43 -5 -12 3
-21 -3 -26 -18 -10 -25 -95 -56 -153 -56 -19 0 -60 -5 -89 -11 -30 -6 -80 -11
-111 -10 -32 1 -58 -3 -58 -7 0 -6 -82 -7 -192 -4 -106 3 -218 4 -249 3 -34
-1 -67 4 -85 14 -16 8 -38 15 -49 16 -11 0 -14 3 -7 6 23 9 12 22 -16 17 -19
-4 -35 1 -52 14 l-25 20 25 22 c17 14 21 23 12 26 -6 3 -10 10 -6 15 9 15 -23
10 -40 -6 -21 -22 -45 -19 -39 4 4 16 0 18 -23 13 -22 -4 -26 -2 -21 10 3 10
-4 24 -19 37 -14 12 -22 26 -19 31 3 6 0 10 -8 10 -28 0 -25 27 5 50 23 17 27
24 17 30 -7 5 -20 5 -29 0 -9 -5 -29 -11 -45 -13 -27 -3 -49 -27 -26 -27 6 0
11 -4 11 -10 0 -5 -13 -10 -29 -10 l-30 0 14 34 c16 37 11 50 -14 37 -20 -10
-59 10 -53 27 2 6 -2 13 -10 13 -86 7 -108 18 -108 50 0 14 -7 19 -27 19 -21
0 -24 -3 -13 -10 16 -10 13 -12 -35 -23 -11 -3 -28 -8 -38 -12 -10 -4 -17 -4
-16 1 4 24 -3 34 -23 34 -18 0 -20 2 -8 10 8 5 11 12 8 16 -4 3 -19 -7 -34
-22 -15 -16 -24 -24 -20 -17 11 20 -16 27 -30 8 -12 -16 -18 -17 -53 -5 -21 7
-45 9 -51 5 -9 -5 -11 -4 -6 3 4 7 3 12 -3 12 -5 0 -13 -5 -16 -10 -4 -6 -12
-7 -18 -4 -9 5 -9 4 0 -6 12 -13 7 -40 -9 -40 -5 0 -6 5 -3 10 4 6 -8 10 -29
10 -20 0 -36 -5 -36 -11 0 -22 -27 -37 -66 -35 -31 1 -38 -2 -36 -16 1 -10 -6
-19 -20 -24 -13 -3 -26 -11 -29 -16 -4 -6 -16 0 -28 13 l-22 23 3 -23 c2 -14
-3 -26 -12 -28 -13 -4 -13 -3 0 6 17 12 7 25 -27 36 -14 4 -23 2 -23 -4 0 -6
7 -11 16 -11 8 0 13 -4 9 -10 -3 -5 -11 -7 -18 -5 -7 3 -19 0 -27 -5 -13 -9
-13 -11 0 -20 8 -5 21 -8 28 -5 7 3 10 0 7 -5 -3 -6 -15 -10 -25 -10 -13 0
-17 -5 -14 -14 4 -11 -2 -14 -23 -11 -15 2 -34 -2 -41 -8 -10 -8 -16 -7 -22 2
-4 7 -26 14 -48 15 -49 1 -62 12 -37 29 17 13 17 14 1 20 -10 4 -14 11 -11 17
4 6 -6 10 -24 10 -35 0 -42 -19 -11 -27 25 -7 26 -23 1 -23 -10 0 -22 8 -26
18 -6 16 -8 15 -24 -4 -13 -16 -25 -20 -49 -16 -24 3 -37 -1 -47 -14 -20 -27
-18 -44 4 -44 11 0 23 -4 26 -10 7 -11 -1540 -14 -1742 -4 l-121 7 59 51 58
51 1 1184 c0 651 2 1182 5 1180 2 -3 5 -95 6 -205z m-2428 -364 c-89 -3 -165
-8 -169 -12 -4 -5 161 -9 367 -10 300 -2 336 -3 184 -8 l-190 -5 109 -7 c60
-5 144 -8 188 -8 45 0 78 -4 78 -10 0 -6 -65 -10 -172 -11 -120 -1 -161 -4
-133 -10 22 -4 100 -8 173 -8 81 -1 132 -5 132 -11 0 -6 -53 -10 -140 -10 -87
0 -140 -4 -140 -10 0 -6 53 -10 140 -10 110 0 140 -3 140 -13 0 -11 -32 -14
-142 -16 -78 -1 -144 -4 -147 -7 -2 -2 62 -4 142 -4 124 0 147 -2 147 -15 0
-13 -26 -15 -167 -17 l-168 -2 168 -3 c139 -3 167 -6 167 -18 0 -13 -40 -15
-272 -17 l-273 -3 273 -2 c232 -3 272 -5 272 -18 0 -13 -87 -15 -690 -15 -607
0 -690 2 -690 15 0 13 51 15 388 17 l387 2 -325 7 c-179 4 -329 8 -335 9 -5 0
-34 -2 -62 -6 -45 -6 -53 -4 -53 10 0 14 31 16 293 18 l292 3 -292 9 c-161 5
-293 12 -293 17 0 5 125 10 278 10 174 1 257 5 222 9 -30 5 -155 8 -277 9
-142 1 -223 5 -223 11 0 6 94 10 263 10 152 0 268 4 277 10 10 6 -80 10 -262
10 -179 0 -278 4 -278 10 0 6 95 10 263 11 144 1 276 5 292 9 17 4 -102 8
-262 9 -188 1 -293 5 -293 11 0 6 76 10 208 10 115 0 251 3 303 8 75 5 32 8
-211 12 l-305 5 320 4 c176 1 314 5 308 8 -43 17 6 23 170 21 l182 -2 -162 -6z
m1947 -20 c-25 -5 -146 -9 -270 -10 -127 -2 -212 -6 -195 -10 17 -4 141 -8
278 -9 157 -1 247 -5 247 -11 0 -6 -96 -10 -267 -11 -150 -1 -257 -5 -243 -9
14 -4 134 -8 268 -9 154 -1 242 -5 242 -11 0 -6 -75 -10 -202 -11 -112 0 -221
-4 -243 -8 -26 -6 48 -9 208 -10 157 -1 247 -5 247 -11 0 -12 14 -11 -290 -19
l-235 -7 263 -2 c206 -2 263 -5 260 -14 -4 -10 -75 -14 -294 -18 l-289 -5 293
-3 c252 -2 292 -4 292 -17 0 -13 -51 -15 -387 -17 l-388 -3 388 -2 c335 -3
387 -5 387 -18 0 -13 -86 -15 -690 -15 -609 0 -689 2 -684 15 5 13 50 15 303
17 l296 3 -297 2 c-256 3 -298 5 -298 18 0 13 28 15 173 17 l172 2 -172 3
c-145 3 -173 6 -173 18 0 13 24 15 147 15 80 0 144 2 142 5 -3 2 -69 5 -147 6
-114 1 -142 4 -142 15 0 11 27 14 143 15 88 0 134 4 122 9 -11 5 -75 9 -142 9
-75 1 -123 5 -123 11 0 6 57 10 150 10 93 0 150 4 150 10 0 6 -57 10 -150 10
-93 0 -150 4 -150 10 0 6 43 10 108 11 108 0 224 8 231 15 2 2 -73 4 -167 4
-95 0 -172 4 -172 8 0 5 303 9 673 9 378 1 652 -3 627 -7z m-1380 -285 c0 -13
-83 -15 -690 -15 -607 0 -690 2 -690 15 0 13 83 15 690 15 607 0 690 -2 690
-15z m1450 0 c0 -13 -44 -15 -322 -17 l-323 -3 323 -2 c277 -3 322 -5 322 -18
0 -13 -32 -15 -217 -15 -119 0 -214 -2 -212 -5 3 -2 99 -5 214 -7 143 -2 210
-7 212 -14 3 -8 -62 -14 -219 -21 l-223 -10 223 -1 c174 -2 223 -5 220 -14 -4
-10 -150 -13 -689 -13 l-684 0 0 35 0 35 145 5 145 6 -148 2 c-114 2 -148 5
-145 15 4 9 65 13 244 17 l239 6 -242 2 c-211 2 -242 4 -237 17 5 13 91 15
690 15 601 0 684 -2 684 -15z m-1450 -40 c0 -13 -33 -15 -237 -17 l-238 -3
237 -2 237 -3 -1 -41 0 -41 -537 4 c-451 2 -536 5 -536 17 0 11 18 14 85 13
47 -1 103 2 125 7 28 6 -18 10 -160 12 -110 2 -170 4 -132 6 37 2 67 8 67 13
0 5 102 9 227 10 125 0 229 3 232 5 2 3 -165 5 -372 5 -325 0 -377 2 -377 15
0 12 90 14 690 15 609 0 690 -2 690 -15z m0 -130 c0 -13 -67 -15 -540 -15
-297 0 -540 3 -540 8 0 4 -43 6 -95 5 -55 -1 -95 2 -95 7 0 6 240 10 635 10
558 0 635 -2 635 -15z m1450 0 c0 -13 -80 -15 -687 -13 -538 2 -687 6 -691 16
-3 9 139 12 687 12 609 0 691 -2 691 -15z m-1450 -40 c0 -14 -63 -15 -547 -12
-689 5 -695 5 -713 17 -10 6 196 10 623 10 563 0 637 -2 637 -15z m1450 0 c0
-13 -83 -15 -690 -15 -607 0 -690 2 -690 15 0 13 83 15 690 15 607 0 690 -2
690 -15z m-1450 -41 c0 -14 -60 -15 -597 -13 -608 2 -673 4 -673 20 0 5 270 9
635 9 571 0 635 -2 635 -16z m1450 1 c0 -13 -83 -15 -690 -15 -607 0 -690 2
-690 15 0 13 83 15 690 15 607 0 690 -2 690 -15z m-1450 -40 c0 -14 -72 -15
-633 -15 -546 1 -634 3 -634 16 0 12 88 14 634 14 561 0 633 -2 633 -15z
m1450 0 c0 -13 -44 -15 -327 -17 l-328 -3 328 -2 327 -3 0 -470 0 -471 -459 1
-460 1 -19 33 c-17 29 -18 36 -5 78 11 39 19 48 53 62 22 9 47 16 55 16 7 0
16 4 19 8 3 5 -43 19 -102 31 -136 29 -182 42 -177 51 5 9 -29 20 -63 20 -12
0 -25 -6 -28 -14 -7 -17 -95 -30 -104 -15 -4 6 -26 13 -49 16 l-41 6 0 323 0
324 133 2 132 2 -132 3 c-109 3 -133 6 -133 18 0 13 89 15 690 15 607 0 690
-2 690 -15z m-2739 -67 c1 -24 2 -53 2 -65 1 -13 4 -23 8 -23 5 0 9 28 11 63
l3 62 633 3 632 2 0 -469 0 -468 -690 1 -690 1 0 468 0 467 45 0 45 0 1 -42z
m2828 -128 c4 0 6 13 3 29 -3 23 2 36 23 55 15 14 30 25 34 24 24 -3 40 4 44
20 3 9 5 -58 6 -150 l1 -168 -65 0 -65 0 2 173 c1 94 4 137 5 95 2 -43 7 -78
12 -78z m-1085 -681 c2 -2 1 -22 -3 -44 l-6 -40 -55 -3 c-30 -2 -70 0 -88 3
l-33 6 23 19 c32 27 8 25 -33 -3 -36 -24 -82 -32 -106 -19 -12 7 -4 16 33 41
41 27 54 31 89 25 32 -4 44 -2 55 11 11 13 26 16 67 13 29 -3 55 -7 57 -9z
m-3279 -268 c58 -18 84 -28 153 -58 18 -8 36 -11 42 -8 5 3 36 -4 69 -15 74
-24 79 -25 77 -2 -1 14 9 18 48 20 101 6 133 -22 39 -34 -32 -4 -63 -13 -71
-20 -17 -18 -66 -17 -117 1 -28 10 -58 13 -99 8 -53 -5 -57 -7 -40 -19 32 -22
44 -34 44 -44 0 -13 -57 -13 -65 0 -3 6 -15 10 -26 10 -11 0 -22 7 -26 15 -7
20 -83 18 -83 -2 0 -8 -12 -13 -30 -13 -16 0 -30 4 -30 9 0 11 -80 64 -87 57
-3 -3 -15 -1 -25 5 -13 7 -17 14 -11 20 6 6 38 4 87 -6 75 -16 78 -15 94 3 9
10 30 22 45 26 24 6 27 9 17 21 -7 8 -21 15 -30 15 -25 0 -50 10 -50 21 0 12
6 11 75 -10z m3673 -271 c128 -10 210 -27 286 -60 53 -22 91 -56 72 -63 -7 -3
-83 -8 -169 -12 l-157 -8 -1 -136 c-1 -155 -8 -324 -15 -330 -2 -2 -4 101 -4
230 l0 234 -72 -4 c-70 -5 -71 -5 -28 -11 29 -5 36 -8 20 -10 -18 -2 -20 -4
-7 -7 28 -7 9 -23 -27 -23 -31 0 -34 3 -40 38 -8 50 -8 157 1 165 3 4 9 7 12
7 3 0 61 -5 129 -10z m1402 -190 c0 -7 -177 -10 -542 -10 -299 0 -603 -2 -675
-3 -73 -1 -133 1 -133 5 0 13 61 14 708 16 435 2 642 -1 642 -8z m0 -39 c0
-15 -44 -16 -707 -20 -583 -3 -643 -1 -643 13 0 14 64 16 675 16 388 0 675 -4
675 -9z m1170 0 c178 -6 86 -8 -438 -12 -525 -3 -662 -1 -662 9 0 9 93 12 438
11 240 -1 538 -5 662 -8z m-1170 -46 c0 -12 -90 -14 -675 -15 -597 0 -675 1
-675 15 0 13 78 15 675 15 585 0 675 -2 675 -15z m1155 5 l240 -6 -260 -3
c-1003 -12 -1065 -11 -1065 4 0 14 50 15 423 13 232 -1 530 -5 662 -8z m-1155
-45 c0 -13 -82 -15 -675 -15 -593 0 -675 2 -675 15 0 13 82 15 675 15 593 0
675 -2 675 -15z m1389 -1 c2 -2 -101 -4 -230 -4 -129 0 -426 -3 -661 -7 -409
-6 -428 -5 -428 12 0 17 27 18 657 11 362 -4 660 -9 662 -12z m-5589 -24 c0
-7 -200 -10 -580 -10 -380 0 -580 3 -580 10 0 7 200 10 580 10 380 0 580 -3
580 -10z m1270 0 c0 -7 -205 -10 -595 -10 -390 0 -595 3 -595 10 0 7 205 10
595 10 390 0 595 -3 595 -10z m2930 -15 c0 -13 -82 -15 -675 -15 -593 0 -675
2 -675 15 0 13 82 15 675 15 593 0 675 -2 675 -15z m1193 5 c108 0 197 -3 197
-8 0 -4 -297 -8 -660 -9 -585 -2 -660 0 -660 13 0 14 53 15 463 10 254 -4 551
-6 660 -6z m-3223 -10 l-125 -5 235 -10 235 -10 3 -539 c1 -348 6 -542 12
-546 15 -10 0 -70 -17 -70 -13 0 -13 -3 -3 -15 7 -9 29 -15 54 -15 40 0 41 1
69 60 37 80 99 111 158 80 17 -10 19 -21 18 -108 -2 -182 -9 -189 -187 -199
-101 -5 -126 -3 -133 8 -14 22 -11 25 31 38 21 6 45 20 53 31 7 11 31 22 54
26 42 6 71 19 63 28 -3 3 -39 0 -80 -5 -79 -10 -351 -19 -580 -20 -85 0 -128
-4 -115 -9 16 -7 12 -9 -18 -9 -21 -1 -36 3 -33 8 3 5 -5 9 -19 9 -23 0 -23
-2 -9 -24 18 -26 62 -44 113 -45 52 -1 72 -11 61 -29 -7 -12 -37 -16 -146 -17
-145 -3 -193 8 -215 48 -17 32 -29 121 -30 219 -1 86 -12 130 -31 130 -5 0 -8
-23 -8 -52 0 -36 -3 -49 -11 -41 -12 12 -9 1037 4 1049 4 4 106 9 227 10 120
1 225 6 232 11 8 4 -46 10 -127 13 -102 4 -69 6 125 6 176 0 223 -2 140 -6z
m-2170 -20 c0 -12 -828 -12 -1040 0 -76 4 104 7 458 8 399 2 582 -1 582 -8z
m1265 0 c-4 -6 -213 -10 -596 -10 -386 0 -589 3 -589 10 0 7 205 10 596 10
394 0 593 -3 589 -10z m2935 -17 c0 -10 -142 -13 -675 -13 -595 0 -675 2 -675
15 0 13 79 15 675 13 532 -2 675 -6 675 -15z m1057 2 c-5 -15 -987 -17 -987
-2 0 9 127 12 495 12 326 0 494 -3 492 -10z m-5257 -15 c0 -7 -200 -10 -580
-10 -380 0 -580 3 -580 10 0 7 200 10 580 10 380 0 580 -3 580 -10z m1270 0
c0 -7 -205 -10 -595 -10 -390 0 -595 3 -595 10 0 7 205 10 595 10 390 0 595
-3 595 -10z m1336 -19 c-3 -4 4 -17 16 -27 12 -11 18 -14 15 -7 -4 6 -3 14 3
18 7 4 9 -157 8 -492 0 -274 -4 -475 -8 -448 -4 28 -8 46 -8 41 -1 -5 -9 -3
-17 4 -12 10 -14 8 -10 -7 2 -11 0 -26 -5 -33 -11 -18 -14 64 -14 520 -1 371
2 440 19 440 4 0 4 -4 1 -9z m2617 0 c15 -1 27 -5 27 -11 0 -6 -171 -9 -490
-7 -321 1 -490 5 -490 12 0 8 762 13 953 6z m-5367 -11 c89 0 144 -4 144 -10
0 -7 -200 -10 -580 -10 -376 0 -580 3 -580 10 0 9 767 21 844 13 16 -2 93 -3
172 -3z m1382 0 c17 0 32 -4 32 -10 0 -7 -205 -10 -595 -10 -379 0 -595 4
-595 10 0 14 361 17 1158 10z m2962 1 c0 -6 -229 -10 -592 -11 -326 -1 -626
-3 -665 -5 -45 -3 -73 0 -73 6 0 6 -4 7 -10 4 -5 -3 -10 -1 -10 4 0 8 207 11
675 11 416 0 675 -4 675 -9z m-2704 -49 c13 -29 18 -656 5 -648 -6 4 -11 2
-11 -3 0 -6 6 -11 13 -11 8 0 7 -3 -3 -9 -18 -12 -33 -3 -26 15 7 18 1 18 -18
-2 -17 -17 -18 -7 -18 381 -1 247 2 301 12 285 8 -13 10 -13 10 2 0 21 25 14
36 -10z m3759 8 c-8 -14 -985 -13 -985 0 0 6 119 11 323 12 434 4 669 -1 662
-12z m-5255 0 c0 -7 -200 -10 -580 -10 -380 0 -580 3 -580 10 0 7 200 10 580
10 380 0 580 -3 580 -10z m1270 0 c0 -7 -205 -10 -595 -10 -390 0 -595 3 -595
10 0 7 205 10 595 10 390 0 595 -3 595 -10z m2930 0 c0 -7 -179 -10 -564 -8
-310 2 -563 1 -561 -2 2 -3 -40 -4 -93 -4 -130 2 -132 3 -132 14 0 7 232 10
675 10 460 0 675 -3 675 -10z m-4500 -40 c0 -7 -150 -10 -430 -10 -280 0 -430
3 -430 10 0 7 150 10 430 10 280 0 430 -3 430 -10z m1570 0 c0 -7 -205 -10
-595 -10 -390 0 -595 3 -595 10 0 7 205 10 595 10 390 0 595 -3 595 -10z
m2930 0 c0 -7 -183 -10 -527 -10 -291 0 -544 -2 -563 -4 -19 -2 -27 -1 -17 1
9 2 17 9 17 14 0 5 215 9 545 9 357 0 545 -3 545 -10z m1055 0 c-4 -6 -180
-10 -496 -10 -319 0 -489 3 -489 10 0 7 172 10 496 10 327 0 493 -3 489 -10z
m-5557 -37 c3 -10 -81 -13 -396 -13 -220 0 -414 3 -431 6 -92 19 7 24 396 22
330 -2 427 -6 431 -15z m1545 12 c15 -4 27 -11 27 -16 0 -5 -253 -9 -595 -9
-493 0 -595 2 -595 14 0 11 99 13 568 15 313 1 580 -1 595 -4z m1847 -15 c-13
-8 -12 -10 3 -10 9 0 17 5 17 10 0 7 188 10 545 10 357 0 545 -3 545 -10 0 -8
-856 -17 -1157 -12 -34 0 -65 -3 -68 -9 -4 -5 22 -9 62 -10 59 -1 64 -2 38
-10 -16 -6 -44 -11 -62 -12 -62 -4 -45 -17 22 -17 59 0 66 -2 55 -15 -13 -15
-35 -21 -26 -7 3 5 -23 5 -57 1 -34 -4 -78 -5 -97 -2 -19 3 -41 6 -47 6 -7 0
-13 4 -13 9 0 4 25 8 55 8 70 0 72 14 3 18 -83 5 -82 21 1 25 28 1 51 6 51 10
0 5 -25 7 -55 5 -44 -2 -55 0 -55 12 0 13 19 15 127 12 83 -2 122 -6 113 -12z
m2170 0 c-21 -13 -990 -13 -990 0 0 7 174 10 503 10 328 0 497 -4 487 -10z
m-5560 -30 c0 -7 -150 -10 -430 -10 -280 0 -430 3 -430 10 0 7 150 10 430 10
280 0 430 -3 430 -10z m1570 0 c0 -7 -205 -10 -595 -10 -390 0 -595 3 -595 10
0 7 205 10 595 10 390 0 595 -3 595 -10z m2930 -10 c0 -7 -181 -10 -524 -10
-288 0 -543 -2 -567 -4 -24 -2 -34 -2 -21 1 12 2 22 9 22 14 0 5 214 9 545 9
357 0 545 -3 545 -10z m1060 0 c-21 -13 -990 -13 -990 0 0 7 174 10 503 10
328 0 497 -4 487 -10z m-5562 -27 c3 -10 -87 -13 -427 -13 -390 0 -466 4 -418
23 6 3 198 5 426 4 321 -2 415 -5 419 -14z m1569 0 c4 -10 -119 -13 -591 -13
-519 0 -596 2 -596 15 0 13 75 14 592 12 462 -2 592 -5 595 -14z m2933 -13 c0
-7 -184 -10 -532 -10 -293 0 -544 -3 -557 -7 -22 -6 -23 -5 -10 10 13 15 68
16 557 17 355 0 542 -3 542 -10z m1055 0 c-4 -6 -180 -10 -496 -10 -319 0
-489 3 -489 10 0 7 172 10 496 10 327 0 493 -3 489 -10z m-8480 -16 c61 -4
105 -9 98 -11 -7 -2 -9 -11 -6 -19 7 -19 62 -18 69 1 5 12 26 15 103 14 92 0
97 -1 117 -27 l21 -27 -41 0 c-23 1 -47 4 -54 8 -7 5 -12 3 -12 -3 0 -7 -6
-10 -12 -7 -7 2 -25 0 -40 -4 -19 -5 -28 -4 -28 4 0 7 -4 6 -10 -3 -5 -8 -10
-10 -10 -4 0 8 -20 12 -52 12 -29 1 -76 5 -105 10 -44 8 -50 7 -46 -7 3 -11 1
-10 -7 2 -9 14 -19 17 -37 12 -16 -4 -22 -2 -18 5 3 5 -2 10 -13 10 -11 0 -25
7 -33 16 -8 10 -24 14 -44 12 -18 -2 -37 2 -43 8 -8 9 1 11 41 8 29 -2 102 -7
162 -10z m2925 -4 c0 -9 -43 -11 -340 -11 -380 -1 -520 2 -520 11 0 7 150 10
430 10 280 0 430 -3 430 -10z m1570 0 c0 -6 -149 -11 -422 -12 -456 -2 -495
-1 -518 13 -9 5 184 9 463 9 311 0 477 -3 477 -10z m-3690 -31 c72 -8 146 -29
235 -66 27 -11 -328 -16 -425 -7 -66 7 -70 9 -35 13 l40 6 -67 19 c-38 11 -68
23 -68 26 0 4 -13 7 -30 8 -16 0 -37 5 -46 10 -22 12 279 6 396 -9z m6620 11
c0 -9 -1054 -20 -1080 -12 -52 18 55 22 535 22 350 0 545 -4 545 -10z m1060 0
c-21 -13 -990 -13 -990 0 0 7 174 10 503 10 328 0 497 -4 487 -10z m-5556 -56
c3 -26 6 -145 6 -265 0 -220 1 -226 34 -220 5 1 16 -1 24 -4 13 -5 12 -8 -4
-20 -18 -14 -18 -14 2 -15 12 0 27 -7 35 -16 11 -13 9 -14 -16 -8 -25 6 -27 5
-21 -12 4 -10 10 -34 13 -51 3 -18 9 -33 13 -33 4 0 11 -8 15 -17 3 -10 -11
-2 -32 18 -36 35 -42 37 -110 38 -82 2 -94 -11 -47 -48 l27 -21 -44 1 c-39 1
-41 2 -14 8 25 5 27 8 12 14 -10 4 -30 7 -43 7 -14 0 -23 4 -20 8 4 7 -114 36
-120 29 -1 -1 0 -14 3 -29 5 -25 9 -27 62 -31 31 -2 -2 -4 -74 -4 -285 -1
-272 0 -279 -29 -4 -14 -17 -35 -30 -47 -18 -17 -28 -44 -41 -112 -10 -49 -21
-98 -27 -107 -8 -17 7 -18 254 -18 292 1 323 4 556 53 l162 35 0 -34 0 -34
-152 -2 -153 -2 153 -3 c126 -3 152 -6 152 -18 0 -13 -73 -15 -582 -13 l-583
3 -3 523 -2 522 434 0 433 0 7 -46z m296 -244 l0 -289 -37 -10 c-21 -6 -62
-11 -90 -11 -47 0 -53 2 -53 21 0 19 4 20 34 15 l34 -7 0 158 c0 87 1 215 1
286 l1 127 55 0 55 0 0 -290z m233 158 c3 -73 9 -153 14 -178 l9 -45 5 48 c2
26 1 47 -2 47 -4 0 -6 10 -5 23 1 15 8 24 21 25 16 1 17 -1 5 -8 -10 -6 -11
-10 -3 -10 9 0 12 -15 10 -49 -1 -27 -5 -47 -9 -44 -5 2 -8 -9 -8 -26 0 -16 5
-33 12 -37 8 -5 9 -2 5 9 -3 10 -2 17 4 17 6 0 7 -31 3 -82 -3 -46 -5 -95 -5
-110 1 -16 -2 -28 -6 -28 -5 0 -8 25 -7 55 0 30 -4 55 -9 55 -5 0 -7 -10 -4
-22 3 -13 1 -32 -3 -43 -7 -15 -9 -10 -9 22 -1 23 -5 44 -10 47 -4 3 -9 -66
-10 -154 l-2 -160 33 1 c31 0 31 1 10 10 -32 12 -23 33 18 39 l33 5 -2 90 c-1
49 -5 93 -7 97 -3 4 11 8 30 8 20 0 39 0 44 0 4 0 8 -11 10 -25 3 -22 8 -25
47 -25 34 0 43 3 39 14 -9 23 14 28 35 7 19 -19 19 -19 20 46 0 93 18 108 22
20 l3 -48 45 3 46 3 3 242 2 241 -102 25 -103 26 388 0 387 1 0 -310 c0 -303
0 -310 20 -310 19 0 20 -7 20 -209 l0 -208 -52 -7 c-29 -3 -297 -6 -595 -6
-525 0 -595 4 -531 29 23 10 23 10 1 10 l-22 1 -1 303 c0 166 2 393 6 505 l7
202 73 0 72 0 5 -132z m3967 102 c0 -7 -168 -10 -482 -11 -266 -1 -510 -1
-543 -1 -35 -1 -61 4 -63 11 -3 8 139 11 542 11 357 0 546 -3 546 -10z m1065
0 c-4 -6 -182 -10 -501 -10 -323 0 -494 3 -494 10 0 7 174 10 501 10 331 0
498 -3 494 -10z m-1065 -40 c0 -7 -163 -10 -467 -11 -258 -1 -501 -2 -542 -3
-51 0 -76 3 -79 12 -3 9 115 12 542 12 357 0 546 -3 546 -10z m1065 0 c-4 -6
-182 -10 -501 -10 -323 0 -494 3 -494 10 0 7 174 10 501 10 331 0 498 -3 494
-10z m-6644 -310 c5 -4 11 -22 13 -41 2 -19 1 -25 -1 -14 -12 52 -18 25 -15
-71 3 -99 5 -106 23 -101 26 7 24 -10 -3 -19 -20 -6 -20 -8 -5 -19 18 -13 24
-31 7 -20 -15 9 -12 -59 2 -73 10 -10 10 -15 -1 -21 -7 -5 -10 -14 -6 -20 4
-7 1 -19 -7 -28 -11 -14 -11 -16 1 -8 11 6 12 2 7 -21 -4 -16 -11 -31 -15 -34
-5 -3 -11 -12 -14 -20 -3 -8 -5 167 -4 390 1 223 3 342 4 265 2 -79 8 -142 14
-145z m5579 270 c0 -7 -161 -10 -462 -11 -255 0 -500 -3 -545 -5 -69 -3 -83
-1 -83 11 0 13 67 15 545 15 357 0 545 -3 545 -10z m1065 0 c-4 -6 -182 -10
-501 -10 -323 0 -494 3 -494 10 0 7 174 10 501 10 331 0 498 -3 494 -10z
m-1065 -39 c0 -16 -81 -19 -584 -17 -390 1 -500 4 -504 14 -3 9 110 12 542 12
315 0 546 -4 546 -9z m1065 -1 c-4 -6 -182 -10 -501 -10 -323 0 -494 3 -494
10 0 7 174 10 501 10 331 0 498 -3 494 -10z m-2165 -44 c0 -11 -14 -14 -61
-13 -33 1 -63 -1 -65 -5 -5 -7 79 -13 114 -9 6 1 12 -4 12 -12 0 -9 -11 -14
-32 -13 -18 1 -49 -1 -68 -5 -33 -6 -32 -7 15 -9 28 -2 56 -4 64 -4 8 -1 16
-6 18 -12 2 -7 -22 -11 -68 -12 -78 -2 -110 -12 -37 -12 58 0 108 -10 108 -21
0 -5 -47 -9 -105 -9 -87 0 -105 3 -105 15 0 10 10 15 28 16 l27 1 -27 10 c-36
12 -36 28 -1 28 23 0 25 13 2 16 -5 1 -13 2 -19 3 -5 0 -10 6 -10 11 0 6 17
11 38 11 l37 2 -37 10 c-65 18 -42 27 67 27 84 0 105 -3 105 -14z m2160 4 c0
-7 -172 -10 -495 -10 -323 0 -495 3 -495 10 0 7 172 10 495 10 323 0 495 -3
495 -10z m5 -40 c4 -7 -163 -10 -494 -10 -327 0 -501 3 -501 10 0 7 171 10
494 10 319 0 497 -4 501 -10z m0 -40 c4 -6 -129 -11 -372 -12 -464 -4 -623 0
-623 12 0 14 987 14 995 0z m-5 -40 c14 -9 -76 -11 -675 -12 -265 0 -315 2
-315 12 0 13 969 13 990 0z m0 -40 c10 -6 -40 -10 -150 -10 -91 -1 -271 -3
-400 -6 -253 -5 -440 2 -440 17 0 13 971 12 990 -1z m0 -40 c10 -7 -11 -10
-70 -11 -640 -8 -777 -9 -848 -4 -45 4 -80 11 -76 16 7 12 975 12 994 -1z m-1
-39 c21 -14 -79 -17 -561 -18 -367 -2 -428 0 -428 13 0 12 70 14 488 14 269 0
493 -4 501 -9z m0 -40 c10 -7 10 -9 -1 -13 -7 -3 -232 -6 -500 -6 -418 -1
-488 1 -488 14 0 12 70 14 488 13 269 0 494 -4 501 -8z m-1 -40 c11 -7 11 -9
-2 -14 -8 -3 -234 -6 -501 -6 -419 0 -485 2 -485 14 0 13 66 15 488 15 268 0
493 -4 500 -9z m-1145 -46 c14 -4 28 -2 31 4 10 16 59 14 54 -1 -4 -10 -124
-14 -546 -16 -298 -1 -542 1 -542 6 0 5 3 12 7 16 9 9 960 0 996 -9z m1145 6
c11 -7 11 -9 -1 -14 -9 -3 -234 -6 -501 -6 -419 0 -486 2 -486 14 0 13 67 15
488 15 268 0 493 -4 500 -9z m-1058 -40 c0 -5 -7 -12 -16 -15 -24 -9 -1074 -7
-1074 2 0 5 3 12 7 15 10 11 1083 8 1083 -2z m1054 3 c9 -3 13 -10 10 -15 -7
-12 -991 -12 -998 0 -3 4 -3 11 1 15 8 8 966 8 987 0z m-5256 -154 l-3 -124
-40 -7 c-22 -4 -95 -17 -163 -29 -68 -12 -125 -21 -127 -19 -2 2 -6 23 -10 47
-5 32 -3 42 8 42 10 0 13 8 9 25 -4 25 -4 25 72 25 l76 0 0 29 c0 22 4 28 18
26 9 -2 47 -6 83 -9 63 -5 67 -4 62 14 -3 11 -2 46 3 77 11 82 15 47 12 -97z
m3071 114 l31 -6 0 -99 c0 -93 -1 -98 -22 -102 -20 -4 -19 -4 4 -6 l27 -1 3
108 3 107 543 3 542 2 0 -81 0 -82 -67 6 c-41 3 -60 2 -48 -3 11 -5 41 -9 68
-9 46 -1 68 -20 25 -22 -13 -1 -34 -3 -48 -5 -14 -3 -101 -5 -195 -6 -167 -1
-253 5 -284 21 -9 4 -45 14 -80 21 -44 9 -59 16 -46 20 17 6 16 7 -5 13 -30 8
-50 -8 -50 -39 0 -13 -4 -24 -9 -24 -5 0 -7 -9 -4 -20 4 -15 31 -28 118 -55
l113 -35 256 0 256 0 0 -100 0 -100 -677 2 c-373 1 -615 5 -538 8 77 3 132 7
123 8 -9 1 -20 6 -23 12 -3 6 1 7 12 4 10 -3 7 1 -7 10 -27 15 -107 12 -145
-7 -14 -7 -11 0 10 22 18 19 37 30 47 28 10 -3 15 0 12 7 -3 7 3 20 13 28 33
30 132 77 178 83 25 4 45 11 45 16 0 5 -3 9 -8 9 -20 0 -145 -39 -151 -47 -3
-5 -28 -24 -54 -42 -39 -26 -51 -30 -62 -21 -8 7 -15 19 -15 27 0 8 -4 12 -9
8 -13 -7 -42 38 -74 115 -20 49 -27 82 -27 133 0 72 13 82 25 20 6 -32 9 -35
15 -18 5 11 9 37 9 58 l1 37 69 0 c38 0 83 -3 100 -6z m2185 0 c12 -4 16 -20
16 -58 l0 -51 17 34 c9 19 19 28 21 22 3 -8 9 -3 16 11 11 21 10 23 -19 29
-17 4 5 6 50 6 44 0 61 -2 38 -4 -24 -2 -43 -8 -43 -13 0 -5 13 -7 29 -4 24 5
30 2 36 -17 4 -13 12 -27 16 -30 11 -6 16 -58 20 -189 2 -74 4 -57 8 77 3 94
10 175 14 179 5 5 34 9 65 9 l57 0 3 -247 2 -248 -58 0 c-55 0 -58 1 -69 30
-13 35 -22 37 -49 11 -12 -10 -43 -22 -70 -26 -68 -10 -1076 -17 -1085 -8 -4
5 -5 50 -2 100 l6 92 136 3 136 3 3 38 c5 63 -4 67 -149 67 -96 0 -129 3 -131
13 -4 36 -5 163 -1 170 5 8 964 10 987 1z m-8115 -240 c16 -12 22 -23 18 -40
-4 -23 -2 -24 57 -25 109 -1 29 -16 -125 -24 -98 -5 -149 -4 -153 3 -4 7 15
13 49 17 43 6 55 11 51 22 -7 18 37 63 61 63 10 0 29 -7 42 -16z m9878 -30 c4
-11 14 -14 33 -11 15 3 31 2 36 -3 5 -4 49 -10 97 -13 49 -3 91 -8 94 -11 10
-10 -333 -7 -431 4 -120 12 -136 30 -23 25 56 -2 93 1 108 10 34 19 78 18 86
-1z m-497 -78 c36 -27 96 -76 134 -108 l70 -58 165 0 c91 0 183 -3 203 -6 26
-5 62 -27 120 -75 64 -53 92 -70 125 -75 24 -3 46 -11 49 -16 3 -5 30 -8 59
-7 44 2 52 5 48 18 -10 27 -46 63 -78 76 l-30 13 35 15 35 15 -42 1 c-23 1
-44 5 -48 11 -3 5 -11 7 -18 5 -7 -3 -34 -1 -62 4 -38 7 -5 9 133 10 119 1
191 -3 205 -10 12 -6 79 -54 150 -107 103 -76 125 -97 116 -108 -6 -8 -8 -14
-3 -14 5 0 2 -5 -6 -11 -12 -8 -10 -9 7 -4 12 3 24 1 28 -5 4 -6 -7 -10 -27
-10 -49 0 -108 -12 -103 -20 7 -12 -89 -20 -234 -20 l-134 0 -150 61 c-127 51
-165 62 -241 70 -50 4 -135 13 -188 19 -54 5 -140 14 -192 20 -99 10 -126 17
-126 31 0 5 10 5 23 0 20 -8 169 -24 332 -36 22 -2 77 -6 121 -10 45 -4 84 -3
87 1 3 5 -27 10 -67 10 -39 1 -97 9 -128 17 -36 9 -60 11 -64 6 -3 -6 -11 -5
-20 2 -8 6 -23 9 -34 6 -11 -3 -20 -1 -20 4 0 15 -56 38 -78 32 -15 -3 -24 0
-28 11 -5 13 -9 14 -21 5 -11 -10 -11 -14 -1 -20 9 -6 7 -9 -9 -9 -17 0 -23 8
-28 43 -4 23 -12 53 -18 67 -6 14 -11 27 -12 30 -1 3 -8 19 -15 35 -7 17 -14
38 -15 49 -1 10 -24 39 -51 63 -60 55 -41 46 46 -21z m-5547 -227 c31 -1 54
-6 51 -10 -3 -5 2 -6 10 -3 9 3 16 2 16 -4 0 -6 -6 -13 -12 -15 -7 -3 -4 -6 8
-6 11 -1 24 -5 30 -10 5 -5 20 -11 34 -14 21 -4 20 -4 -7 -6 -18 0 -33 -6 -33
-12 0 -5 4 -8 9 -5 5 3 11 0 14 -8 3 -8 16 -16 29 -19 13 -2 -11 -6 -52 -8
-71 -3 -68 -3 40 -9 63 -3 -146 -6 -465 -6 -509 1 -536 1 -215 6 201 3 320 7
265 9 -55 3 -82 6 -60 8 47 5 72 22 35 24 -23 1 -22 2 5 9 29 7 29 8 -10 10
-22 1 -32 4 -22 7 9 2 17 9 17 14 0 5 21 10 48 11 l47 1 -45 7 -45 7 55 2 c30
1 50 5 43 9 -7 4 8 7 32 7 23 0 41 -3 38 -7 -2 -5 0 -8 6 -8 5 0 11 5 13 11 3
9 10 9 26 0 12 -7 22 -8 21 -4 -3 16 1 24 10 19 4 -3 33 -6 64 -7z m-3689 -52
c10 -7 19 -29 21 -49 4 -34 2 -37 -28 -44 -45 -10 -344 -6 -387 5 -29 7 -31 9
-10 10 20 1 22 3 10 12 -11 8 -12 12 -2 16 6 2 10 8 7 13 -21 35 344 70 389
37z m-414 -120 c17 -9 71 -12 178 -12 84 1 155 -2 157 -5 8 -13 -370 -86 -570
-111 -143 -18 -196 -19 -202 -3 -3 8 -10 14 -15 14 -6 0 -8 -6 -5 -13 4 -10
-4 -13 -28 -12 -18 1 -37 5 -44 9 -6 4 -11 2 -11 -3 0 -6 -5 -11 -11 -11 -5 0
-7 5 -4 10 3 6 -4 10 -15 10 -19 0 -21 -4 -16 -26 7 -25 5 -25 -27 10 -19 20
-38 36 -43 36 -5 0 -2 -4 6 -10 8 -5 11 -12 7 -17 -5 -4 -12 -1 -16 6 -7 11
-11 9 -20 -5 -9 -17 -11 -15 -11 14 0 4 5 7 10 7 6 0 14 5 18 12 8 12 36 12
48 0 13 -12 26 -7 21 7 -4 9 1 15 11 15 50 1 71 4 67 11 -2 3 1 7 8 8 7 0 23
4 37 7 20 6 22 5 10 -5 -16 -13 -18 -13 38 4 13 5 22 3 22 -3 0 -6 4 -11 10
-11 5 0 7 6 4 13 -3 8 5 13 20 15 20 1 24 -2 19 -15 -4 -11 -3 -14 6 -9 6 4
10 15 9 24 -3 15 12 18 112 22 63 3 126 11 140 17 33 15 50 15 80 0z m4343 -2
c-19 -13 -20 -19 -11 -50 6 -19 15 -32 19 -29 4 2 33 1 64 -2 31 -4 51 -10 45
-14 -7 -4 2 -13 22 -21 l33 -14 -70 -6 c-94 -9 -285 -10 -285 -3 0 3 11 15 25
26 14 11 25 26 25 34 0 12 -56 14 -367 15 -203 1 -388 3 -413 4 -25 1 -154 3
-288 4 -159 1 -241 4 -237 11 4 6 -21 11 -67 12 -213 5 327 16 864 17 523 2
618 4 628 17 7 8 17 14 23 14 6 0 2 -7 -10 -15z m-3818 -59 c-36 -29 -33 -28
-545 -131 -623 -125 -650 -129 -663 -116 -9 10 -6 11 13 6 16 -4 32 0 45 10
19 16 19 16 -7 10 -16 -3 -28 -2 -28 3 0 8 1144 238 1200 241 9 1 2 -9 -15
-23z m2843 -92 c13 -2 20 -9 17 -14 -4 -6 -11 -7 -17 -4 -7 5 -9 2 -5 -8 3 -9
0 -21 -6 -27 -9 -9 -9 -14 2 -20 8 -5 11 -16 8 -25 -4 -9 -1 -16 6 -16 7 -1 2
-9 -10 -19 -13 -11 -23 -24 -23 -29 0 -6 -6 -13 -12 -15 -7 -3 1 -6 19 -6 17
-1 39 -4 49 -8 10 -3 15 -2 12 3 -4 5 29 9 78 8 46 0 89 3 96 7 7 4 -11 8 -41
7 -67 0 -75 8 -19 20 23 5 34 10 23 11 -16 1 -13 5 13 17 34 17 42 34 16 34
-8 0 -12 5 -9 10 4 7 14 6 28 -2 12 -6 23 -11 25 -10 10 7 42 0 37 -8 -7 -11
8 -11 45 -1 25 7 24 8 -7 15 -36 8 -45 26 -13 26 11 0 20 5 20 11 0 5 8 9 18
8 9 -1 28 0 42 1 23 1 23 2 5 9 -19 8 -19 8 3 20 17 9 75 11 203 9 l179 -3 1
-45 c3 -94 8 -162 11 -165 2 -1 38 3 80 10 42 6 83 8 90 4 9 -6 8 -9 -7 -9
l-20 -1 20 -11 c30 -16 31 -18 15 -29 -12 -7 -11 -10 7 -15 18 -5 20 -10 13
-35 -7 -23 -5 -31 6 -36 7 -3 14 -14 14 -25 0 -10 4 -17 9 -14 5 3 7 15 4 26
-4 16 -2 19 11 14 9 -3 16 -14 16 -23 0 -14 2 -14 10 -1 6 9 10 10 10 3 0 -19
29 -30 95 -36 33 -3 50 -3 38 1 -19 6 -20 9 -7 26 14 19 15 19 44 -9 16 -15
27 -33 23 -38 -3 -6 -1 -7 5 -3 5 3 12 2 14 -3 2 -5 20 -5 43 -1 38 7 38 8 8
9 -41 1 -47 13 -22 40 15 16 18 29 13 56 -4 21 -2 35 4 35 5 0 7 10 5 23 -4
20 1 25 37 36 30 9 45 9 55 1 9 -8 15 -8 20 0 3 5 28 10 55 10 57 0 80 -23 60
-61 -9 -15 -8 -24 1 -36 11 -13 10 -18 -6 -29 -10 -8 -30 -14 -44 -15 -14 0
-20 -3 -12 -6 11 -4 11 -7 0 -13 -8 -6 0 -11 24 -15 44 -8 48 -22 10 -28 -19
-3 -14 -4 16 -6 37 -1 42 -3 31 -16 -11 -13 -3 -15 66 -14 68 1 75 3 52 12
-32 12 -37 27 -10 27 14 0 15 2 2 10 -8 5 -27 10 -42 10 -15 0 -30 4 -33 10
-4 6 8 10 29 10 20 0 36 -4 36 -10 0 -5 9 -10 21 -10 11 0 18 -4 14 -9 -3 -5
-1 -12 5 -16 5 -3 10 2 10 11 0 13 3 15 11 7 8 -8 8 -17 0 -30 -7 -13 -7 -23
0 -30 15 -15 -13 -33 -68 -43 -42 -7 -44 -8 -13 -8 19 -1 54 3 78 7 23 5 42 6
42 2 0 -11 -117 -51 -151 -51 -26 0 -30 -3 -19 -10 12 -8 10 -10 -10 -11 -19
-1 -21 -2 -6 -6 15 -4 16 -7 5 -14 -9 -5 13 -9 59 -9 101 0 92 -20 -10 -21
-46 -1 -71 -4 -55 -6 15 -2 27 -8 27 -13 0 -4 19 -11 43 -15 23 -4 49 -11 57
-16 20 -11 -110 1 -133 13 -10 5 -27 6 -39 2 -20 -6 -19 -7 10 -26 23 -14 56
-21 129 -25 l97 -6 -45 -13 c-24 -8 -70 -13 -101 -12 -61 2 -82 -7 -58 -22 13
-8 12 -10 -2 -10 -10 0 -18 6 -18 13 0 8 -4 7 -10 -3 -8 -12 -10 -12 -11 5 0
11 -3 14 -6 8 -3 -9 -28 -13 -74 -13 -55 0 -69 3 -69 15 0 12 -13 15 -56 15
-49 0 -55 2 -44 15 11 13 2 15 -70 15 -61 0 -88 -4 -101 -16 -16 -15 -43 -21
-106 -23 -27 -1 -31 -4 -29 -25 2 -14 -5 -28 -17 -35 -15 -10 -18 -10 -11 1 6
10 4 10 -9 -1 -14 -11 -45 -13 -146 -9 -71 3 -134 9 -141 13 -7 4 -27 9 -44
10 -17 2 -53 6 -81 10 -51 7 -181 -2 -171 -12 7 -7 122 -7 133 0 5 3 15 2 23
-3 25 -16 -38 -31 -114 -28 -39 1 -103 -4 -142 -11 -48 -9 -92 -11 -130 -6
-57 8 -58 8 -25 16 19 4 41 5 49 1 10 -3 13 -1 8 6 -4 7 -2 12 6 12 8 0 6 5
-5 11 -10 6 -25 8 -34 5 -10 -4 -13 -2 -10 6 3 10 -8 12 -45 10 -27 -2 -61 -1
-76 4 -25 7 -24 8 23 20 28 6 42 13 33 13 -28 2 -21 21 7 22 14 1 30 3 35 4 6
1 27 3 48 4 33 2 35 3 15 13 -14 7 -40 7 -75 2 -29 -5 -65 -8 -79 -6 -22 3
-25 7 -21 28 2 14 0 24 -7 24 -6 0 -11 -11 -11 -25 0 -14 -3 -24 -7 -23 -5 1
-19 -2 -32 -6 -35 -12 -52 10 -17 24 15 5 33 8 39 4 7 -3 3 2 -7 10 -19 15
-19 16 -1 16 10 0 16 3 12 6 -3 4 -26 6 -49 6 -51 -1 -124 32 -95 43 22 9 22
31 0 44 -24 13 -15 19 34 22 42 3 50 19 10 19 -22 0 -22 1 3 20 20 16 22 20 8
20 -20 0 -23 11 -9 26 11 11 2 64 -11 64 -5 0 -7 9 -3 19 3 11 1 22 -5 26 -8
5 -8 11 1 21 13 16 -4 44 -27 44 -8 0 -14 5 -14 11 0 7 10 9 25 5 27 -7 35 8
10 18 -15 5 -21 47 -8 60 11 11 12 36 1 36 -6 0 -7 8 -3 18 13 32 15 92 3 92
-8 0 -8 3 -2 9 17 18 99 20 172 5z m7609 -8 c28 -23 87 -34 206 -38 20 -1 37
-6 37 -12 0 -7 3 -7 8 -1 4 6 22 12 41 13 32 3 33 3 18 -13 -10 -9 -17 -22
-17 -28 0 -8 4 -7 9 2 5 8 18 12 29 9 16 -5 20 -2 17 13 -5 24 1 24 27 -1 13
-12 29 -18 40 -14 11 3 30 -1 43 -10 13 -9 31 -13 39 -10 11 4 16 0 16 -11 0
-9 -4 -14 -9 -11 -15 10 -43 -6 -37 -20 3 -7 1 -16 -4 -19 -6 -4 -10 -1 -10 5
0 11 -63 7 -117 -6 -18 -5 -22 -3 -17 10 3 9 1 16 -5 16 -6 0 -11 -4 -11 -9 0
-5 -8 -8 -17 -7 -11 0 -17 -5 -15 -14 3 -11 -2 -10 -17 4 -16 14 -21 16 -21 5
0 -11 -2 -11 -8 -2 -5 8 -27 12 -58 11 -27 -1 -80 4 -119 11 -171 31 -421 83
-435 90 -8 4 -55 16 -105 27 l-90 19 235 5 c129 3 254 7 277 8 31 1 48 -4 70
-22z m-8727 3 c0 -12 87 -11 95 1 8 12 45 13 45 1 0 -12 -21 -19 -80 -27 -27
-4 -50 -11 -50 -16 0 -6 8 -7 17 -4 34 13 103 19 103 8 0 -5 6 -10 13 -9 39 1
47 -7 12 -13 l-40 -7 48 -2 c26 0 47 3 47 7 0 5 12 13 28 20 19 8 21 11 6 8
-12 -2 -28 0 -35 5 -9 5 19 9 71 11 95 2 94 2 170 -6 39 -3 45 -3 20 3 -41 9
-28 17 42 25 59 7 83 0 67 -20 -6 -8 -8 -21 -3 -31 4 -10 8 -25 8 -33 0 -8 5
-18 10 -22 6 -4 3 -15 -8 -27 -19 -21 -19 -21 7 -21 36 0 43 -16 10 -25 -21
-5 -24 -8 -12 -16 12 -8 12 -10 -1 -19 -12 -8 -13 -13 -2 -30 9 -15 9 -20 0
-20 -6 0 -3 -7 8 -15 14 -10 15 -14 5 -15 -11 0 -10 -3 3 -13 17 -13 16 -14
-12 -26 -17 -7 -37 -20 -44 -29 -11 -13 -10 -15 7 -10 11 3 28 9 38 13 13 6
16 3 11 -9 -3 -9 -12 -16 -20 -16 -8 0 -14 -4 -14 -10 0 -5 8 -10 18 -10 18 0
42 -18 42 -31 0 -4 -18 -2 -40 3 -49 13 -78 5 -60 -17 7 -8 20 -15 29 -15 9 0
22 -9 29 -20 11 -18 8 -23 -25 -47 -21 -16 -38 -35 -38 -43 0 -8 -13 -18 -30
-22 -22 -5 -18 -6 13 -3 36 5 42 3 42 -14 0 -11 6 -22 13 -24 7 -3 5 -6 -5 -6
-10 -1 -18 3 -18 7 0 12 -122 13 -140 2 -10 -7 1 -8 35 -4 42 6 48 4 37 -7 -9
-9 -36 -14 -83 -13 -51 0 -69 -3 -69 -13 0 -10 25 -13 115 -11 106 3 146 -6
94 -19 -21 -6 -21 -6 2 -24 15 -12 19 -19 10 -19 -8 0 -22 7 -31 15 -14 13
-26 14 -71 5 -77 -15 -169 -42 -169 -50 0 -6 77 1 165 15 29 5 36 4 24 -4 -16
-10 -125 -34 -211 -47 -26 -3 -45 -10 -42 -15 3 -5 -78 -9 -187 -9 -106 0
-189 3 -186 6 10 10 54 15 162 18 61 2 116 9 140 19 39 15 33 16 -165 17 -113
1 -197 4 -187 7 28 7 20 19 -25 33 -24 7 -37 15 -30 17 20 7 63 53 50 53 -6 0
-20 -7 -30 -17 -11 -9 -18 -11 -18 -5 0 7 5 12 10 12 6 0 10 5 10 10 0 6 -21
10 -47 10 -25 0 -43 3 -40 7 6 5 91 21 135 25 19 2 14 17 -5 16 -57 -4 -101
37 -53 49 21 6 28 23 9 23 -7 0 -9 9 -6 23 7 25 -1 41 -23 50 -12 4 -11 6 3 6
24 1 22 21 -3 21 -28 0 -25 17 5 24 31 8 32 22 3 30 -21 6 -21 7 -5 17 23 14
22 39 -3 39 -11 0 -20 4 -20 9 0 5 9 13 20 16 21 7 28 25 10 25 -5 0 -10 6
-10 14 0 8 -5 18 -12 22 -7 4 -8 3 -4 -4 4 -7 2 -12 -3 -12 -6 0 -11 7 -11 15
0 9 -6 12 -15 9 -18 -7 -19 -5 -1 37 10 23 11 39 5 52 -7 13 -6 19 6 24 13 5
14 7 3 14 -11 7 -10 10 1 21 12 11 13 10 6 -2 -6 -11 -5 -12 4 -4 7 6 13 26
13 44 1 21 7 34 20 39 27 10 268 10 268 0z m885 1 c4 -6 2 -17 -4 -24 -7 -9
-7 -16 1 -24 9 -9 9 -15 1 -23 -9 -9 -9 -16 0 -29 8 -14 7 -24 -6 -44 -17 -25
-17 -26 3 -26 13 0 20 -7 20 -20 0 -13 -7 -20 -20 -20 -11 0 -20 -3 -20 -6 0
-10 28 -34 40 -34 20 0 4 -25 -18 -28 -18 -3 -21 -8 -16 -35 12 -76 11 -88 -8
-98 -22 -12 -24 -29 -3 -29 8 0 15 -4 15 -10 0 -5 -9 -10 -20 -10 -11 0 -20
-4 -20 -8 0 -13 -44 -12 -52 1 -4 6 2 21 13 33 17 19 18 22 5 27 -21 8 -20 46
0 75 21 30 12 39 -18 18 -31 -22 -48 -20 -20 3 27 24 28 29 1 33 -21 3 -20 4
5 31 32 35 33 47 2 47 -30 0 -44 18 -21 26 9 4 14 12 11 19 -2 7 2 22 10 34
14 19 13 21 0 21 -9 0 -16 5 -16 10 0 6 6 10 13 10 7 0 8 3 2 8 -16 11 -18 64
-3 73 19 12 116 11 123 -1z m-2830 -61 c4 -6 -1 -17 -11 -24 -18 -13 -18 -14
-1 -15 18 0 25 -20 6 -20 -6 0 -9 -7 -5 -15 3 -8 1 -15 -5 -15 -5 0 -2 -14 7
-31 l16 -32 -39 -33 c-30 -26 -33 -32 -15 -27 12 3 22 1 22 -5 0 -5 -20 -12
-44 -13 -24 -2 -42 -1 -39 4 2 4 11 7 19 7 26 0 15 19 -13 22 -16 2 -29 9 -29
16 -1 6 -3 13 -4 15 -1 1 -3 14 -4 28 -1 15 -8 34 -15 43 -11 13 -11 17 3 22
10 4 15 12 12 20 -6 16 11 30 60 48 48 18 71 19 79 5z m10418 -69 c386 -86
622 -142 631 -151 6 -5 -5 -6 -25 -3 -19 3 -59 7 -89 9 -49 3 -51 2 -21 -6 18
-6 31 -12 29 -15 -6 -5 -122 20 -358 77 -96 23 -196 46 -222 52 -27 5 -48 13
-48 18 0 5 -6 6 -13 3 -7 -2 -24 0 -38 5 -13 5 -18 10 -10 10 8 1 4 9 -10 21
-13 10 -21 19 -16 20 4 0 89 -18 190 -40z m-4562 -91 c16 -19 35 -27 25 -10
-3 5 7 8 22 8 15 0 21 -2 15 -4 -7 -3 -13 -9 -13 -14 0 -6 5 -7 10 -4 6 3 10
2 10 -4 0 -5 -4 -11 -9 -13 -13 -5 -24 -48 -12 -48 5 0 8 -13 6 -29 -3 -29 18
-61 32 -47 3 3 2 6 -4 6 -16 0 -24 43 -10 53 9 7 9 10 0 14 -22 8 -15 43 8 43
16 0 19 3 11 13 -6 7 -10 22 -10 33 2 20 8 21 201 22 175 1 197 0 187 -14 -7
-8 -9 -18 -5 -22 4 -4 9 -2 12 3 12 33 22 36 114 37 175 1 233 -5 237 -25 2
-9 9 -17 15 -18 7 -1 1 -4 -13 -8 -24 -7 -24 -8 13 -20 44 -15 46 -23 10 -41
l-28 -13 28 -12 c16 -6 27 -16 25 -21 -3 -9 118 -23 162 -18 14 1 43 3 65 3
33 1 37 4 22 12 -9 6 -25 8 -35 5 -9 -3 -44 -1 -77 3 l-60 8 63 2 c35 0 62 5
62 11 0 7 13 8 35 4 30 -5 34 -4 29 11 -4 9 -18 21 -33 28 -26 11 -26 11 -3
15 19 3 21 6 11 19 -7 8 -14 24 -16 34 -2 15 3 19 25 19 33 0 64 -19 44 -27
-10 -4 -10 -8 -1 -19 7 -9 8 -14 1 -14 -7 0 -8 -10 -3 -27 8 -31 7 -60 -4 -85
-4 -11 -3 -18 5 -18 7 0 9 -8 5 -20 -4 -13 -1 -22 9 -26 20 -8 21 -24 1 -24
-22 0 -18 -18 5 -25 25 -8 26 -25 3 -25 -10 -1 -31 -11 -47 -24 -27 -23 -28
-24 -8 -30 28 -9 39 -46 18 -61 -23 -17 -20 -25 8 -25 25 0 45 -16 23 -18 -7
-1 -34 -5 -60 -10 -27 -5 -64 -8 -83 -6 -20 2 -32 -1 -29 -6 7 -11 -18 -12
-200 -12 -73 1 -122 -3 -126 -10 -4 -7 -13 -6 -28 1 -12 7 -21 8 -21 2 0 -5 6
-12 13 -14 6 -3 -12 -6 -41 -6 -29 -1 -51 3 -48 8 3 4 -46 8 -109 7 -63 0
-115 -4 -115 -8 0 -12 -65 -9 -77 3 -7 7 -17 8 -29 1 -11 -5 -35 -9 -54 -8
-19 1 -40 -2 -47 -7 -13 -9 -149 -4 -160 7 -3 3 -36 6 -72 7 -70 0 -171 16
-118 18 20 1 30 8 37 26 7 17 14 23 26 18 14 -5 15 -3 4 16 -6 13 -18 20 -25
17 -14 -5 -45 23 -45 43 0 7 14 17 31 23 l32 11 -26 14 c-26 13 -27 13 -7 33
22 22 25 36 9 45 -6 4 -8 12 -6 19 3 6 -1 20 -9 31 -21 28 -17 35 19 36 17 1
25 3 16 6 -20 5 -31 62 -17 81 7 8 7 12 -1 12 -6 0 -11 7 -11 16 0 11 6 14 23
8 22 -7 22 -6 3 15 l-19 21 46 0 c26 0 47 4 47 8 0 15 75 -1 91 -19z m1483 15
c23 -4 41 -3 45 4 4 7 36 7 106 -1 103 -12 179 -11 171 2 -11 17 264 3 314
-17 17 -6 182 -11 176 -4 -3 2 -29 8 -58 12 l-53 8 43 1 c24 0 75 -4 114 -11
51 -8 73 -8 75 -1 2 6 12 9 21 8 70 -14 76 -16 61 -26 -11 -7 -10 -9 6 -9 12
0 26 5 33 12 10 10 16 8 29 -5 16 -16 15 -17 -15 -17 -20 0 -31 -4 -27 -10 3
-5 15 -10 27 -10 14 0 18 -5 14 -16 -4 -9 -1 -24 6 -32 7 -9 9 -13 3 -10 -5 3
-16 0 -23 -8 -11 -12 -10 -15 2 -20 9 -3 16 -11 16 -16 0 -6 8 -17 18 -24 15
-12 14 -13 -16 -14 l-33 0 18 -25 c10 -14 28 -28 41 -31 32 -9 30 -38 -3 -30
-31 8 -35 -18 -5 -34 19 -10 29 -43 13 -38 -5 1 -24 -4 -43 -11 -29 -11 -31
-15 -15 -18 26 -6 44 -23 25 -23 -8 -1 -31 -3 -50 -6 -22 -3 -42 0 -55 10 -20
15 -20 15 -1 29 19 14 19 15 -3 27 -17 8 -20 15 -12 23 8 8 -1 17 -30 34 -45
25 -53 28 -45 14 4 -5 -9 -5 -27 1 -19 6 -34 17 -34 24 0 18 20 18 60 0 53
-23 119 -47 122 -44 11 10 -56 71 -85 78 l-35 8 33 1 c17 1 32 5 32 10 0 12
-82 21 -96 11 -7 -7 -11 -4 -11 6 0 12 11 15 48 13 27 -2 52 0 55 4 4 4 -8 7
-27 7 -19 0 -41 5 -49 11 -11 7 0 9 41 7 43 -2 55 0 51 10 -5 15 -182 16 -182
1 0 -5 -6 -9 -13 -9 -8 0 -14 -6 -15 -12 -4 -52 -8 -66 -24 -90 -24 -35 -24
-36 17 -44 54 -10 39 -32 -23 -35 -19 -1 -21 -3 -9 -6 12 -3 16 -10 13 -20 -4
-9 1 -21 10 -28 20 -14 10 -35 -17 -35 -10 0 -19 -4 -19 -10 0 -5 5 -10 11
-10 6 0 5 -5 -3 -13 -16 -16 -128 -32 -128 -18 0 6 17 12 38 14 l37 4 -40 1
c-23 1 -50 -5 -63 -13 -20 -15 -21 -15 -15 1 6 16 0 16 -68 9 -41 -4 -92 -8
-114 -9 -22 -1 -46 -5 -52 -9 -8 -5 -13 -4 -13 2 0 7 -38 11 -105 11 -58 0
-105 -3 -105 -7 0 -8 -179 -8 -267 0 -29 3 -60 12 -68 21 -9 9 -21 16 -26 16
-5 0 -9 9 -9 21 0 13 10 23 30 30 31 11 38 23 20 34 -6 3 -7 17 -4 30 4 18 1
25 -18 31 -22 8 -22 8 7 15 28 6 29 7 8 14 -27 8 -31 25 -7 25 14 0 14 3 4 15
-9 10 -9 15 -1 15 22 0 11 20 -15 26 -19 5 -22 9 -12 15 11 7 10 11 -2 19 -13
8 -12 11 6 16 16 4 21 14 22 45 1 24 -3 39 -10 39 -6 0 -3 7 8 15 15 11 16 15
4 17 -24 3 152 15 180 12 14 -2 42 -6 64 -10z m-2094 -3 l-45 -6 43 -8 c39 -7
43 -9 30 -24 -10 -13 -10 -17 0 -20 19 -7 14 -33 -7 -33 -11 0 -23 -4 -26 -10
-3 -5 -1 -10 4 -10 6 0 11 -4 11 -10 0 -5 -8 -10 -17 -10 -15 0 -14 -2 3 -14
14 -11 16 -17 7 -27 -6 -6 -9 -17 -7 -23 12 -31 -97 -58 -163 -40 -36 10 -16
24 33 24 24 0 44 5 44 10 0 6 -15 10 -32 10 -40 0 -54 9 -55 35 0 11 -3 41 -6
67 -3 26 -2 50 3 53 4 3 6 14 3 25 -5 19 -1 20 108 18 76 -1 99 -3 69 -7z
m-219 -18 c4 -73 11 -118 19 -128 6 -7 2 -15 -11 -23 -11 -7 -17 -17 -14 -23
8 -12 -13 -39 -31 -39 -7 0 -25 5 -41 11 -20 7 -24 12 -14 18 9 6 5 10 -13 15
-34 8 -33 24 2 29 26 4 27 4 4 12 -14 5 -21 13 -18 21 3 8 1 14 -4 14 -6 0
-10 7 -10 15 0 8 5 15 10 15 6 0 10 5 10 10 0 6 -6 10 -14 10 -21 0 -25 23 -8
43 11 12 30 17 74 17 48 0 58 -3 59 -17z m609 -223 c0 -5 -6 -10 -12 -11 -7 0
-3 -5 10 -11 23 -12 30 -28 11 -28 -7 0 -9 -11 -6 -26 3 -16 0 -28 -10 -31 -8
-3 -11 -13 -8 -23 5 -14 -3 -18 -47 -23 -29 -4 -73 -7 -98 -7 l-45 1 34 14
c18 8 44 15 57 15 13 0 24 3 24 8 0 13 -65 51 -98 58 -46 9 -27 27 22 21 38
-5 39 -4 14 6 -48 19 -32 32 52 40 72 8 100 7 100 -3z"/>
<path d="M6410 4161 c14 -5 49 -20 78 -35 52 -26 53 -28 37 -46 -19 -21 -34
-14 149 -65 30 -8 58 -20 62 -27 4 -7 3 -8 -4 -4 -7 4 -12 3 -12 -2 0 -6 -15
-13 -34 -16 -68 -13 -71 -52 -8 -89 24 -14 36 -16 51 -8 26 14 32 51 29 186
l-3 110 -185 2 c-102 1 -174 -2 -160 -6z"/>
<path d="M5345 4288 c3 -13 9 -34 12 -48 3 -14 11 -28 16 -32 7 -4 11 -80 10
-205 0 -109 2 -165 4 -125 2 39 7 72 11 72 5 0 6 15 4 34 -4 35 43 155 55 142
9 -9 63 27 63 41 0 7 10 13 23 14 20 0 20 1 3 8 -26 10 -10 18 38 19 64 2 54
12 -11 12 l-61 0 4 35 c2 21 -1 33 -6 30 -6 -4 -10 -19 -10 -36 0 -16 -4 -29
-10 -29 -5 0 -10 6 -10 13 0 9 -2 9 -9 -1 -6 -11 -10 -10 -15 3 -5 14 -9 15
-21 5 -9 -7 -15 -8 -15 -2 0 5 -11 13 -25 16 -15 4 -30 17 -35 31 -12 31 -25
33 -15 3z"/>
<path d="M6181 2635 c-2 -49 -6 -115 -11 -145 -6 -48 -7 -40 -10 60 -1 63 -5
126 -9 140 -8 25 -8 25 -15 -6 -4 -17 -6 -35 -5 -40 5 -29 -3 -34 -61 -34
l-60 0 0 -79 c0 -77 1 -80 30 -101 17 -12 30 -27 30 -34 0 -8 -10 -11 -30 -8
-28 4 -30 2 -30 -26 0 -23 6 -32 30 -42 17 -7 30 -16 30 -21 0 -5 -13 -9 -30
-9 l-30 0 0 -99 c0 -110 0 -111 80 -111 l35 0 -2 -150 -1 -150 33 0 c37 0 44
11 43 72 0 21 7 44 16 53 9 9 16 12 16 6 0 -19 28 -12 33 9 4 15 14 20 36 20
24 0 31 -4 31 -20 0 -22 35 -28 43 -7 4 10 6 10 6 0 1 -9 19 -13 57 -13 32 0
53 -4 49 -9 -3 -6 -28 -8 -55 -6 -46 3 -49 2 -40 -15 6 -10 10 -23 10 -29 0
-10 -38 -27 -52 -23 -5 1 -8 -2 -8 -7 0 -5 -14 -14 -31 -22 -28 -11 -33 -10
-44 5 -13 17 -13 16 -17 -1 -3 -10 2 -31 9 -46 12 -25 15 -26 29 -12 15 14 37
20 59 15 6 -1 19 -3 30 -4 12 -1 26 -6 33 -10 8 -5 10 -2 6 8 -4 11 0 13 18 9
l23 -6 -25 23 c-24 21 -24 23 -6 34 10 6 30 23 43 38 14 14 36 29 49 32 l24 6
0 365 0 365 -175 0 -174 0 -4 58 c-3 46 -4 39 -6 -33z"/>
<path d="M4870 2345 l0 -225 30 0 c17 0 30 4 30 10 0 5 -7 7 -15 4 -13 -5 -15
15 -14 147 2 161 4 162 18 14 8 -84 8 -79 10 86 1 175 1 177 -21 183 -13 3
-26 6 -30 6 -5 0 -8 -101 -8 -225z"/>
<path d="M4336 1795 c-27 -19 -53 -40 -58 -47 -10 -17 -7 -78 5 -78 5 0 6 12
3 28 -7 31 2 46 56 85 46 34 98 47 98 24 0 -8 7 -20 15 -27 8 -7 15 -22 15
-35 0 -19 -8 -23 -72 -35 -85 -15 -98 -19 -98 -31 0 -5 12 -6 26 -3 19 5 25 4
20 -5 -6 -8 36 -11 161 -10 157 2 172 4 236 29 55 22 65 29 53 39 -9 8 -15 8
-18 1 -1 -5 -34 -11 -72 -12 -58 -2 -70 -5 -74 -21 -3 -13 -7 -15 -12 -6 -5 7
-3 20 3 30 9 15 6 26 -19 61 l-30 43 -94 2 c-93 2 -96 2 -144 -32z"/>
<path d="M3330 3811 c0 -6 -11 -11 -24 -11 -40 0 -39 -18 1 -28 85 -21 142
-32 212 -42 40 -6 82 -15 93 -21 38 -21 143 -12 112 9 -6 4 -13 15 -17 25 -4
10 -17 17 -32 17 -14 0 -58 9 -98 19 -39 11 -103 22 -142 26 -38 3 -78 8 -87
11 -10 3 -18 1 -18 -5z"/>
</g>
</svg>
